<svg width="30" height="40" viewBox="0 0 30 40" fill="none" xmlns="http://www.w3.org/2000/svg">
<ellipse cx="15" cy="37.0002" rx="13" ry="3" fill="#D4DADE"/>
<path d="M30 15.2497C30 23.6711 21.9479 31.4796 17.6417 35.884C16.1824 37.3742 13.8143 37.3742 12.355 35.884C8.05212 31.4796 0 24.5 0 15.2497C0 6.82844 6.71661 0 15 0C23.2834 0 30 6.82844 30 15.2497Z" fill="#FF531A"/>
<mask id="mask0_8999_2566" style="mask-type:alpha" maskUnits="userSpaceOnUse" x="3" y="2" width="24" height="24">
<rect x="3" y="2" width="24" height="24" fill="#D9D9D9"/>
</mask>
<g mask="url(#mask0_8999_2566)">
<path d="M5 21V19H25V21H5ZM6 18V17C6 14.8667 6.65417 12.9833 7.9625 11.35C9.27083 9.71667 10.95 8.68333 13 8.25V8C13 7.45 13.1958 6.97917 13.5875 6.5875C13.9792 6.19583 14.45 6 15 6C15.55 6 16.0208 6.19583 16.4125 6.5875C16.8042 6.97917 17 7.45 17 8V8.25C19.0667 8.68333 20.75 9.71667 22.05 11.35C23.35 12.9833 24 14.8667 24 17V18H6Z" fill="white"/>
</g>
</svg>
