<svg width="50" height="50" viewBox="0 0 50 50" fill="none" xmlns="http://www.w3.org/2000/svg">
<g clip-path="url(#clip0_4248_14768)">
<circle cx="25" cy="18" r="6" fill="white"/>
<path d="M25.0001 4.1665C16.9376 4.1665 10.4167 10.6873 10.4167 18.7498C10.4167 27.0443 18.8037 38.3342 22.857 43.3061C23.9799 44.6836 26.0202 44.6836 27.1432 43.3061C31.1965 38.3342 39.5834 27.0443 39.5834 18.7498C39.5834 10.6873 33.0626 4.1665 25.0001 4.1665ZM25.0001 23.9582C22.1251 23.9582 19.7917 21.6248 19.7917 18.7498C19.7917 15.8748 22.1251 13.5415 25.0001 13.5415C27.8751 13.5415 30.2084 15.8748 30.2084 18.7498C30.2084 21.6248 27.8751 23.9582 25.0001 23.9582Z" fill="#FF531A"/>
</g>
<defs>
<clipPath id="clip0_4248_14768">
<rect width="50" height="50" fill="white"/>
</clipPath>
</defs>
</svg>
