<svg width="101" height="100" viewBox="0 0 101 100" fill="none" xmlns="http://www.w3.org/2000/svg">
<path fill-rule="evenodd" clip-rule="evenodd" d="M22.5366 67.1408C31.9965 72.7664 44.2257 69.6582 49.8514 60.1983C55.477 50.7384 52.3687 38.5092 42.9089 32.8836C33.449 27.2579 21.2198 30.3662 15.5941 39.826C9.9685 49.2859 13.0768 61.5151 22.5366 67.1408ZM19.3215 72.5472C31.7673 79.9485 47.8565 75.8591 55.2577 63.4134C62.659 50.9676 58.5697 34.8785 46.124 27.4772C33.6782 20.0759 17.589 24.1652 10.1877 36.6109C2.78645 49.0567 6.87578 65.1459 19.3215 72.5472Z" fill="#D4DADE"/>
<path fill-rule="evenodd" clip-rule="evenodd" d="M62.1983 22.8439C64.3652 20.7122 67.85 20.7408 69.9817 22.9078L73.3907 26.3732C71.4476 28.6714 70.2761 31.6429 70.2761 34.8881C70.2761 42.1757 76.1839 48.0835 83.4715 48.0835C86.6388 48.0835 89.5455 46.9675 91.8198 45.1073L92.9357 46.2417C95.0674 48.4087 95.0388 51.8934 92.8719 54.0251L69.5379 76.9792C67.371 79.1109 63.8862 79.0823 61.7545 76.9153L38.8005 53.5814C36.6688 51.4144 36.6974 47.9297 38.8643 45.798L62.1983 22.8439Z" fill="#D4DADE"/>
<path fill-rule="evenodd" clip-rule="evenodd" d="M52.3468 67.4883C53.3341 66.3424 54.2355 65.0949 55.0354 63.7498C61.0631 53.6139 59.4695 41.0614 51.9475 32.7533L47.457 37.1706C53.0236 43.4857 54.1634 52.9098 49.629 60.5347C49.1113 61.4054 48.5376 62.2222 47.9152 62.9834L52.3468 67.4883Z" fill="white"/>
</svg>
