<svg width="30" height="40" viewBox="0 0 30 40" fill="none" xmlns="http://www.w3.org/2000/svg">
<ellipse cx="15" cy="37" rx="13" ry="3" fill="#D4DADE"/>
<path d="M30 15.2497C30 23.6711 21.9479 31.4796 17.6417 35.884C16.1824 37.3742 13.8143 37.3742 12.355 35.884C8.05212 31.4796 0 24.5 0 15.2497C0 6.82844 6.71661 0 15 0C23.2834 0 30 6.82844 30 15.2497Z" fill="#FF531A"/>
<g clip-path="url(#clip0_8999_2543)">
<path d="M11.6684 10.62H10.7158V9.39825L11.6684 9.28965V10.62ZM11.6684 16.05H10.7158V11.525H11.6684V16.05ZM8.81053 11.525H9.76316V16.05H8.81053V11.525ZM8.81053 9.6064L9.76316 9.4978V10.62H8.81053V9.6064ZM24.0526 7.905V7L7.85789 8.81V16.05H5C5 19.3895 7.353 22.2583 10.7158 23.5163V25.1H18.3368V23.5163C21.6996 22.2583 24.0526 19.3895 24.0526 16.05H12.6211V11.525H24.0526V10.62H12.6211V9.18105L24.0526 7.905Z" fill="white"/>
</g>
<defs>
<clipPath id="clip0_8999_2543">
<rect width="24" height="24" fill="white" transform="translate(3 3)"/>
</clipPath>
</defs>
</svg>
