<svg width="152" height="190" viewBox="0 0 152 190" fill="none" xmlns="http://www.w3.org/2000/svg">
<path fill-rule="evenodd" clip-rule="evenodd" d="M46.3644 87.3114C56.7596 93.4933 70.1979 90.0777 76.3798 79.6825C82.5616 69.2873 79.146 55.849 68.7509 49.6671C58.3557 43.4853 44.9173 46.9008 38.7355 57.296C32.5536 67.6912 35.9692 81.1295 46.3644 87.3114ZM42.8314 93.2523C56.5077 101.385 74.1876 96.8918 82.3207 83.2155C90.4538 69.5392 85.9601 51.8592 72.2838 43.7262C58.6076 35.5931 40.9276 40.0868 32.7945 53.763C24.6615 67.4393 29.1551 85.1193 42.8314 93.2523Z" fill="#FF531A"/>
<path fill-rule="evenodd" clip-rule="evenodd" d="M89.9474 38.6349C92.3286 36.2925 96.1579 36.3239 98.5003 38.7051L102.247 42.5133C100.111 45.0387 98.8239 48.304 98.8239 51.8701C98.8239 59.8782 105.316 66.3701 113.324 66.3701C116.804 66.3701 119.999 65.1438 122.498 63.0997L123.724 64.3461C126.066 66.7273 126.035 70.5566 123.654 72.8991L98.0127 98.1227C95.6315 100.465 91.8022 100.434 89.4598 98.0525L64.2362 72.4115C61.8937 70.0302 61.9252 66.201 64.3064 63.8585L89.9474 38.6349Z" fill="#FF531A"/>
<path fill-rule="evenodd" clip-rule="evenodd" d="M79.1217 87.6938C80.2066 86.4346 81.1971 85.0637 82.0761 83.5857C88.6998 72.4475 86.9486 58.6539 78.6829 49.5244L73.7485 54.3785C79.8654 61.3179 81.118 71.6739 76.1352 80.0527C75.5663 81.0094 74.9358 81.907 74.252 82.7434L79.1217 87.6938Z" fill="white"/>
<path d="M0 163.424C0 162.89 0.105883 162.569 0.321571 162.357C0.533337 162.196 0.854908 162.09 1.38825 162.09H18.7884V157.82C18.7884 157.286 18.8943 156.965 19.1099 156.753C19.3217 156.592 19.6433 156.486 20.1766 156.486H27.6512C28.1296 156.486 28.5061 156.592 28.7179 156.753C28.9296 156.965 29.0394 157.286 29.0394 157.82V162.09H46.4396C46.918 162.09 47.2945 162.196 47.5062 162.357C47.718 162.569 47.8278 162.89 47.8278 163.424V169.667C47.8278 170.2 47.7219 170.573 47.5062 170.734C47.2945 170.945 46.918 171 46.4396 171H13.8236V175.165C13.8236 176.447 14.0903 177.408 14.6236 177.992C15.157 178.581 16.1178 178.847 17.5609 178.847C19.4825 178.792 21.51 178.741 23.6982 178.687C25.8316 178.581 28.0747 178.42 30.3689 178.314C32.612 178.208 34.8512 178.047 37.0944 177.832C39.3376 177.671 41.4709 177.459 43.6082 177.243C44.0866 177.189 44.4082 177.243 44.6239 177.455C44.7847 177.667 44.8905 178.043 44.9964 178.577L45.5298 184.769C45.5847 185.302 45.4749 185.624 45.2631 185.785C44.9964 185.891 44.6239 185.996 44.1415 186.106C41.6866 186.318 39.1258 186.585 36.4552 186.8L28.3963 187.283L20.4433 187.604C17.8276 187.659 15.3727 187.71 13.1295 187.71C9.7138 187.71 7.25888 186.804 5.81573 184.989C4.3216 183.122 3.57258 180.185 3.57258 176.181V171.004H1.38825C0.854908 171.004 0.533337 170.949 0.321571 170.737C0.109805 170.577 0 170.204 0 169.671V163.428L0 163.424ZM3.04316 138.337C3.04316 137.804 3.14904 137.482 3.36473 137.271C3.5765 137.11 3.89807 137.004 4.43141 137.004H43.2905C43.7729 137.004 44.1454 137.11 44.3572 137.271C44.569 137.482 44.6788 137.804 44.6788 138.337V143.996C44.6788 144.529 44.5729 144.902 44.3572 145.063C44.1454 145.275 43.769 145.329 43.2905 145.329H31.1218C32.3493 146.557 34.0042 147.573 36.0865 148.373C38.114 149.228 40.518 149.761 43.1846 149.922C43.2905 149.922 43.3964 149.977 43.6121 149.977C43.7729 150.031 43.9337 150.082 44.1454 150.188C44.2513 150.294 44.4121 150.455 44.518 150.671C44.6239 150.882 44.6788 151.204 44.6788 151.577V157.075C44.6788 157.502 44.6239 157.769 44.518 157.981C44.3572 158.192 44.1964 158.353 44.0396 158.408C43.8278 158.514 43.6121 158.569 43.4513 158.569C43.2395 158.624 43.0239 158.624 42.918 158.624C40.518 158.569 38.3258 158.302 36.3532 157.824C34.3257 157.396 32.51 156.863 30.91 156.114C29.31 155.475 27.9218 154.675 26.7453 153.765C25.5727 152.91 24.612 152.055 23.9178 151.149C23.1688 152.055 22.2629 152.91 21.0904 153.765C19.9178 154.671 18.5296 155.475 16.9256 156.114C15.3256 156.863 13.5099 157.396 11.5334 157.824C9.50595 158.302 7.2628 158.573 4.91376 158.624C4.75298 158.624 4.59219 158.624 4.43141 158.569C4.21964 158.569 4.00395 158.514 3.84317 158.408C3.6314 158.353 3.47061 158.196 3.36473 157.981C3.20395 157.769 3.15296 157.502 3.15296 157.075V151.577C3.15296 151.204 3.20787 150.882 3.31375 150.671C3.41963 150.459 3.52552 150.298 3.7412 150.188C3.84709 150.082 4.00787 150.028 4.21964 149.977C4.38043 149.977 4.54121 149.922 4.64709 149.922C7.3177 149.761 9.66282 149.228 11.7452 148.373C13.7727 147.573 15.4276 146.557 16.7099 145.329H4.43141C3.89807 145.329 3.5765 145.275 3.36473 145.063C3.15296 144.902 3.04316 144.529 3.04316 143.996V138.337Z" fill="#FF531A"/>
<path d="M80.2783 157.075C80.2783 159.318 79.796 160.973 78.8352 161.933C77.8744 162.949 76.4352 163.428 74.5136 163.428H57.1134C55.1919 163.428 53.7487 162.949 52.7879 161.933C51.8271 160.973 51.3487 159.318 51.3487 157.075V138.337C51.3487 137.804 51.4546 137.482 51.6703 137.271C51.882 137.11 52.2036 137.004 52.7369 137.004H78.8901C79.3685 137.004 79.745 137.11 79.9568 137.271C80.1685 137.482 80.2783 137.804 80.2783 138.337V157.071V157.075ZM78.7842 166.683C79.3175 166.683 79.6391 166.843 79.8509 167.055C79.9568 167.322 80.0626 167.643 80.0626 168.016C80.0626 169.349 80.3842 170.632 81.0783 171.859C81.7176 173.141 82.7332 174.259 84.0156 175.224C85.298 176.239 86.8431 177.09 88.7137 177.734C90.5294 178.373 92.6118 178.8 94.9569 179.016C95.0628 179.016 95.1686 179.016 95.3843 179.071C95.5451 179.071 95.7059 179.177 95.9177 179.283C96.0235 179.389 96.1843 179.549 96.2902 179.761C96.3961 179.973 96.451 180.24 96.451 180.667V186.165C96.451 186.538 96.3961 186.859 96.2902 187.071C96.1294 187.283 95.9686 187.443 95.8118 187.553C95.6 187.608 95.3843 187.659 95.2235 187.714H94.6902C92.2353 187.608 89.9411 187.342 87.9098 186.808C85.7764 186.22 83.9058 185.526 82.3058 184.781C80.596 183.926 79.1567 183.071 77.9803 182.11C76.7528 181.094 75.792 180.134 75.0979 179.173C74.3489 180.134 73.443 181.094 72.2704 182.11C71.043 183.071 69.6037 183.926 67.9998 184.781C66.29 185.53 64.4233 186.22 62.3958 186.808C60.2625 187.342 58.0193 187.608 55.5644 187.714H55.086C54.8742 187.659 54.6585 187.608 54.4977 187.553C54.286 187.447 54.1252 187.287 54.0193 187.071C53.8585 186.859 53.8075 186.538 53.8075 186.165V180.667C53.8075 180.24 53.8624 179.973 53.9683 179.761C54.0742 179.549 54.1801 179.389 54.3958 179.283C54.5017 179.177 54.6624 179.071 54.8742 179.071C55.035 179.016 55.1958 179.016 55.3017 179.016C57.6507 178.804 59.7331 178.377 61.5998 177.734C63.4155 177.094 64.9645 176.239 66.2429 175.224C67.5253 174.263 68.4861 173.141 69.1802 171.859C69.8194 170.632 70.1959 169.349 70.1959 168.016C70.1959 167.643 70.2508 167.322 70.4626 167.055C70.5684 166.843 70.941 166.683 71.4783 166.683H78.792H78.7842ZM68.9645 155.047C69.5528 155.047 69.9802 154.941 70.192 154.675C70.4037 154.463 70.5135 154.035 70.5135 153.341V145.122H61.1174V153.341C61.1174 154.035 61.2233 154.463 61.439 154.675C61.6507 154.941 62.0272 155.047 62.6664 155.047H68.9645ZM102.216 153.926C102.216 154.459 102.11 154.831 101.894 154.992C101.682 155.204 101.306 155.259 100.827 155.259H95.9177V165.773C95.9177 166.306 95.8118 166.679 95.5961 166.839C95.3843 167.051 95.0079 167.106 94.5294 167.106H87.0588C86.5254 167.106 86.2039 167.051 85.9921 166.839C85.7803 166.679 85.6705 166.306 85.6705 165.773V138.337C85.6705 137.804 85.7764 137.482 85.9921 137.271C86.2039 137.11 86.5254 137.004 87.0588 137.004H94.5294C95.0118 137.004 95.3843 137.11 95.5961 137.271C95.8079 137.482 95.9177 137.804 95.9177 138.337V146.396H100.827C101.306 146.396 101.682 146.502 101.894 146.663C102.106 146.875 102.216 147.196 102.216 147.729V153.922V153.926Z" fill="#FF531A"/>
<path d="M127.253 153.498C127.253 154.031 127.147 154.404 126.931 154.565C126.72 154.777 126.343 154.832 125.865 154.832H114.924C114.924 154.992 114.924 155.098 114.978 155.204V155.526C114.978 156.592 115.245 157.286 115.778 157.659C116.261 158.086 117.061 158.247 118.178 158.137C119.3 158.083 120.527 158.032 121.916 157.926C123.198 157.871 124.531 157.714 125.92 157.498C126.398 157.443 126.72 157.498 126.935 157.659C127.096 157.871 127.202 158.247 127.308 158.781L127.841 163.69C127.896 164.224 127.786 164.596 127.575 164.706C127.308 164.867 126.935 164.973 126.453 165.028C124.32 165.349 122.288 165.561 120.316 165.667C118.288 165.828 116.312 165.879 114.284 165.879C110.869 165.879 108.414 164.973 106.971 163.102C105.476 161.286 104.727 158.404 104.727 154.349C104.727 151.894 104.727 149.224 104.782 146.341C104.782 143.459 104.837 140.788 104.943 138.333C104.943 137.8 105.104 137.478 105.316 137.267C105.476 137.106 105.794 137 106.331 137H125.869C126.347 137 126.724 137.106 126.935 137.267C127.147 137.478 127.257 137.8 127.257 138.333V143.243C127.257 143.777 127.151 144.149 126.935 144.31C126.724 144.522 126.347 144.577 125.869 144.577H114.873V147.247H125.869C126.347 147.247 126.724 147.353 126.935 147.514C127.147 147.726 127.257 148.047 127.257 148.58V153.49L127.253 153.498ZM114.869 178.373C114.869 176.773 115.19 175.33 115.829 173.941C116.469 172.608 117.484 171.432 118.873 170.42C120.261 169.459 122.022 168.71 124.21 168.126C126.343 167.592 128.959 167.326 132.057 167.326C135.155 167.326 137.716 167.592 139.904 168.126C142.037 168.714 143.853 169.459 145.241 170.42C146.63 171.436 147.641 172.608 148.285 173.941C148.924 175.33 149.245 176.769 149.245 178.373C149.245 179.977 148.924 181.416 148.285 182.804C147.645 184.138 146.63 185.314 145.241 186.326C143.853 187.287 142.037 188.036 139.904 188.62C137.716 189.153 135.1 189.42 132.057 189.42C129.014 189.42 126.347 189.153 124.21 188.62C122.022 188.032 120.261 187.287 118.873 186.326C117.484 185.31 116.473 184.138 115.829 182.804C115.19 181.416 114.869 179.977 114.869 178.373ZM139.155 178.373C139.155 177.84 138.943 177.357 138.567 176.934C138.139 176.561 137.661 176.24 137.018 175.973C136.324 175.761 135.575 175.545 134.724 175.44C133.869 175.334 132.963 175.279 132.057 175.279C131.096 175.279 130.241 175.334 129.386 175.44C128.531 175.545 127.786 175.761 127.143 175.973C126.449 176.24 125.916 176.561 125.543 176.934C125.116 177.361 124.955 177.84 124.955 178.373C124.955 178.906 125.116 179.389 125.543 179.812C125.916 180.185 126.449 180.506 127.143 180.773C127.782 180.985 128.531 181.2 129.386 181.306C130.241 181.412 131.096 181.467 132.057 181.467C132.963 181.467 133.873 181.412 134.724 181.306C135.575 181.2 136.324 180.985 137.018 180.773C137.657 180.506 138.139 180.185 138.567 179.812C138.939 179.385 139.155 178.906 139.155 178.373ZM131.63 165.51C131.096 165.51 130.775 165.455 130.563 165.243C130.351 165.083 130.241 164.71 130.241 164.177V138.337C130.241 137.804 130.347 137.482 130.563 137.271C130.775 137.11 131.096 137.004 131.63 137.004H138.3C138.783 137.004 139.155 137.11 139.367 137.271C139.579 137.482 139.688 137.804 139.688 138.337V147.196H142.037V138.337C142.037 137.804 142.143 137.482 142.359 137.271C142.571 137.11 142.892 137.004 143.426 137.004H150.096C150.579 137.004 150.951 137.11 151.163 137.271C151.375 137.482 151.485 137.804 151.485 138.337V164.439C151.485 164.973 151.379 165.345 151.163 165.506C150.951 165.718 150.575 165.773 150.096 165.773H143.426C142.892 165.773 142.571 165.718 142.359 165.506C142.147 165.345 142.037 164.973 142.037 164.439V155.314H139.688V164.173C139.688 164.706 139.583 165.079 139.367 165.239C139.155 165.451 138.779 165.506 138.3 165.506H131.63V165.51Z" fill="#FF531A"/>
</svg>
