<svg width="30" height="30" viewBox="0 0 30 30" fill="none" xmlns="http://www.w3.org/2000/svg">
<mask id="mask0_8552_5751" style="mask-type:alpha" maskUnits="userSpaceOnUse" x="0" y="0" width="30" height="30">
<rect width="30" height="30" fill="#D9D9D9"/>
</mask>
<g mask="url(#mask0_8552_5751)">
<path d="M15 22.5C15.4375 22.5 15.8073 22.349 16.1094 22.0469C16.4115 21.7448 16.5625 21.375 16.5625 20.9375C16.5625 20.5 16.4115 20.1302 16.1094 19.8281C15.8073 19.526 15.4375 19.375 15 19.375C14.5625 19.375 14.1927 19.526 13.8906 19.8281C13.5885 20.1302 13.4375 20.5 13.4375 20.9375C13.4375 21.375 13.5885 21.7448 13.8906 22.0469C14.1927 22.349 14.5625 22.5 15 22.5ZM13.875 17.6875H16.1875C16.1875 16.9375 16.2708 16.3854 16.4375 16.0312C16.6042 15.6771 16.9583 15.2292 17.5 14.6875C18.2292 13.9583 18.7448 13.349 19.0469 12.8594C19.349 12.3698 19.5 11.8125 19.5 11.1875C19.5 10.0833 19.125 9.19271 18.375 8.51562C17.625 7.83854 16.6146 7.5 15.3438 7.5C14.1979 7.5 13.224 7.78125 12.4219 8.34375C11.6198 8.90625 11.0625 9.6875 10.75 10.6875L12.8125 11.5C12.9583 10.9375 13.25 10.4844 13.6875 10.1406C14.125 9.79688 14.6354 9.625 15.2188 9.625C15.7812 9.625 16.25 9.77604 16.625 10.0781C17 10.3802 17.1875 10.7812 17.1875 11.2812C17.1875 11.6354 17.0729 12.0104 16.8438 12.4062C16.6146 12.8021 16.2292 13.2396 15.6875 13.7188C15 14.3229 14.526 14.901 14.2656 15.4531C14.0052 16.0052 13.875 16.75 13.875 17.6875ZM6.25 26.25C5.5625 26.25 4.97396 26.0052 4.48438 25.5156C3.99479 25.026 3.75 24.4375 3.75 23.75V6.25C3.75 5.5625 3.99479 4.97396 4.48438 4.48438C4.97396 3.99479 5.5625 3.75 6.25 3.75H23.75C24.4375 3.75 25.026 3.99479 25.5156 4.48438C26.0052 4.97396 26.25 5.5625 26.25 6.25V23.75C26.25 24.4375 26.0052 25.026 25.5156 25.5156C25.026 26.0052 24.4375 26.25 23.75 26.25H6.25Z" fill="white"/>
</g>
</svg>
