<svg width="160" height="229" viewBox="0 0 160 229" fill="none" xmlns="http://www.w3.org/2000/svg">
<path fill-rule="evenodd" clip-rule="evenodd" d="M50.796 87.3114C61.1912 93.4933 74.6295 90.0777 80.8114 79.6825C86.9933 69.2873 83.5777 55.849 73.1825 49.6671C62.7873 43.4853 49.349 46.9008 43.1671 57.296C36.9853 67.6912 40.4008 81.1295 50.796 87.3114ZM47.263 93.2523C60.9393 101.385 78.6193 96.8918 86.7523 83.2155C94.8854 69.5392 90.3918 51.8592 76.7155 43.7262C63.0392 35.5931 45.3592 40.0868 37.2262 53.763C29.0931 67.4393 33.5868 85.1193 47.263 93.2523Z" fill="white"/>
<path fill-rule="evenodd" clip-rule="evenodd" d="M94.3793 38.6349C96.7605 36.2925 100.59 36.3239 102.932 38.7051L106.678 42.5133C104.543 45.0387 103.256 48.304 103.256 51.8701C103.256 59.8782 109.748 66.3701 117.756 66.3701C121.236 66.3701 124.43 65.1438 126.93 63.0997L128.156 64.3461C130.498 66.7273 130.467 70.5566 128.086 72.8991L102.445 98.1227C100.063 100.465 96.2341 100.434 93.8916 98.0525L68.6681 72.4115C66.3256 70.0302 66.357 66.201 68.7383 63.8585L94.3793 38.6349Z" fill="white"/>
<path fill-rule="evenodd" clip-rule="evenodd" d="M83.5539 87.6938C84.6388 86.4346 85.6293 85.0637 86.5083 83.5857C93.1319 72.4475 91.3807 58.6539 83.115 49.5244L78.1806 54.3785C84.2976 61.3179 85.5501 71.6739 80.5673 80.0527C79.9984 81.0094 79.368 81.907 78.6841 82.7434L83.5539 87.6938Z" fill="#FF531A"/>
<path d="M4.86511 163.212C4.86511 162.683 4.97015 162.364 5.18411 162.154C5.39418 161.994 5.71317 161.889 6.24223 161.889H23.5029V157.653C23.5029 157.124 23.608 156.805 23.8219 156.595C24.032 156.435 24.351 156.33 24.8801 156.33H32.2947C32.7694 156.33 33.1428 156.435 33.3529 156.595C33.5629 156.805 33.6719 157.124 33.6719 157.653V161.889H50.9326C51.4072 161.889 51.7806 161.994 51.9907 162.154C52.2008 162.364 52.3097 162.683 52.3097 163.212V169.405C52.3097 169.934 52.2047 170.304 51.9907 170.463C51.7806 170.673 51.4072 170.728 50.9326 170.728H18.578V174.859C18.578 176.131 18.8425 177.084 19.3716 177.664C19.9006 178.248 20.8537 178.512 22.2853 178.512C24.1915 178.458 26.2027 178.407 28.3735 178.353C30.4897 178.248 32.7149 178.088 34.9906 177.983C37.2158 177.878 39.4371 177.718 41.6623 177.505C43.8875 177.345 46.0037 177.135 48.1239 176.921C48.5985 176.867 48.9175 176.921 49.1314 177.131C49.2909 177.341 49.396 177.715 49.501 178.244L50.0301 184.386C50.0845 184.915 49.9756 185.234 49.7655 185.394C49.501 185.499 49.1314 185.604 48.6529 185.713C46.2177 185.923 43.6774 186.187 41.0282 186.401L33.0339 186.88L25.1446 187.199C22.5499 187.253 20.1146 187.304 17.8894 187.304C14.5011 187.304 12.0658 186.405 10.6342 184.604C9.15209 182.752 8.40906 179.839 8.40906 175.867V170.732H6.24223C5.71317 170.732 5.39418 170.677 5.18411 170.467C4.97404 170.308 4.86511 169.938 4.86511 169.409V163.216V163.212ZM7.88389 138.327C7.88389 137.798 7.98892 137.479 8.20288 137.268C8.41295 137.109 8.73195 137.004 9.26101 137.004H47.8088C48.2873 137.004 48.6568 137.109 48.8669 137.268C49.077 137.479 49.1859 137.798 49.1859 138.327V143.94C49.1859 144.469 49.0809 144.839 48.8669 144.998C48.6568 145.208 48.2834 145.263 47.8088 145.263H35.7376C36.9552 146.48 38.5968 147.488 40.6625 148.282C42.6737 149.13 45.0584 149.659 47.7037 149.818C47.8088 149.818 47.9138 149.873 48.1278 149.873C48.2873 149.927 48.4468 149.978 48.6568 150.083C48.7619 150.188 48.9214 150.347 49.0264 150.561C49.1314 150.771 49.1859 151.09 49.1859 151.46V156.914C49.1859 157.338 49.1314 157.602 49.0264 157.812C48.8669 158.023 48.7074 158.182 48.5518 158.236C48.3417 158.342 48.1278 158.396 47.9683 158.396C47.7582 158.45 47.5442 158.45 47.4392 158.45C45.0584 158.396 42.8838 158.131 40.927 157.657C38.9158 157.233 37.1147 156.704 35.5275 155.961C33.9403 155.327 32.5632 154.533 31.3961 153.631C30.233 152.782 29.2799 151.934 28.5913 151.036C27.8483 151.934 26.9496 152.782 25.7865 153.631C24.6233 154.529 23.2462 155.327 21.6551 155.961C20.0679 156.704 18.2668 157.233 16.3061 157.657C14.2949 158.131 12.0697 158.4 9.7395 158.45C9.58001 158.45 9.42051 158.45 9.26101 158.396C9.05094 158.396 8.83698 158.342 8.67749 158.236C8.46742 158.182 8.30792 158.026 8.20288 157.812C8.04339 157.602 7.99281 157.338 7.99281 156.914V151.46C7.99281 151.09 8.04728 150.771 8.15231 150.561C8.25735 150.351 8.36238 150.192 8.57634 150.083C8.68138 149.978 8.84087 149.923 9.05094 149.873C9.21044 149.873 9.36994 149.818 9.47497 149.818C12.1242 149.659 14.4505 149.13 16.5162 148.282C18.5274 147.488 20.1691 146.48 21.4412 145.263H9.26101C8.73195 145.263 8.41295 145.208 8.20288 144.998C7.99281 144.839 7.88389 144.469 7.88389 143.94V138.327Z" fill="white"/>
<path d="M84.5006 156.914C84.5006 159.139 84.0221 160.781 83.069 161.734C82.1159 162.741 80.6883 163.216 78.7821 163.216H61.5214C59.6152 163.216 58.1836 162.741 57.2305 161.734C56.2774 160.781 55.8028 159.139 55.8028 156.914V138.327C55.8028 137.798 55.9078 137.479 56.1218 137.268C56.3319 137.109 56.6509 137.004 57.1799 137.004H83.1235C83.5981 137.004 83.9716 137.109 84.1816 137.268C84.3917 137.479 84.5006 137.798 84.5006 138.327V156.91V156.914ZM83.0185 166.445C83.5475 166.445 83.8665 166.604 84.0766 166.814C84.1816 167.079 84.2867 167.398 84.2867 167.767C84.2867 169.09 84.6057 170.362 85.2942 171.58C85.9283 172.852 86.9359 173.961 88.208 174.918C89.4801 175.925 91.0128 176.769 92.8684 177.407C94.6696 178.041 96.7352 178.465 99.0616 178.679C99.1666 178.679 99.2716 178.679 99.4856 178.734C99.6451 178.734 99.8046 178.839 100.015 178.944C100.12 179.049 100.279 179.208 100.384 179.419C100.489 179.629 100.544 179.893 100.544 180.317V185.771C100.544 186.141 100.489 186.46 100.384 186.67C100.225 186.88 100.065 187.039 99.9096 187.148C99.6996 187.203 99.4856 187.253 99.3261 187.308H98.797C96.3618 187.203 94.086 186.938 92.0709 186.409C89.9547 185.826 88.099 185.137 86.5119 184.398C84.8157 183.55 83.388 182.702 82.221 181.749C81.0034 180.741 80.0503 179.788 79.3617 178.835C78.6187 179.788 77.72 180.741 76.5569 181.749C75.3393 182.702 73.9116 183.55 72.3205 184.398C70.6244 185.141 68.7726 185.826 66.7614 186.409C64.6452 186.938 62.42 187.203 59.9847 187.308H59.5101C59.3001 187.253 59.0861 187.203 58.9266 187.148C58.7165 187.043 58.557 186.884 58.452 186.67C58.2925 186.46 58.2419 186.141 58.2419 185.771V180.317C58.2419 179.893 58.2964 179.629 58.4014 179.419C58.5065 179.208 58.6115 179.049 58.8255 178.944C58.9305 178.839 59.09 178.734 59.3001 178.734C59.4596 178.679 59.6191 178.679 59.7241 178.679C62.0543 178.469 64.12 178.045 65.9717 177.407C67.7729 176.773 69.3095 175.925 70.5777 174.918C71.8498 173.964 72.8029 172.852 73.4914 171.58C74.1255 170.362 74.499 169.09 74.499 167.767C74.499 167.398 74.5534 167.079 74.7635 166.814C74.8685 166.604 75.2381 166.445 75.7711 166.445H83.0263H83.0185ZM73.2775 154.903C73.861 154.903 74.285 154.798 74.4951 154.533C74.7052 154.323 74.8141 153.899 74.8141 153.21V145.057H65.4932V153.21C65.4932 153.899 65.5983 154.323 65.8122 154.533C66.0223 154.798 66.3957 154.903 67.0298 154.903H73.2775ZM106.262 153.79C106.262 154.319 106.157 154.689 105.943 154.848C105.733 155.058 105.36 155.113 104.885 155.113H100.015V165.542C100.015 166.071 99.9096 166.441 99.6957 166.6C99.4856 166.81 99.1121 166.865 98.6375 166.865H91.2267C90.6977 166.865 90.3787 166.81 90.1686 166.6C89.9585 166.441 89.8496 166.071 89.8496 165.542V138.327C89.8496 137.798 89.9547 137.479 90.1686 137.268C90.3787 137.109 90.6977 137.004 91.2267 137.004H98.6375C99.116 137.004 99.4856 137.109 99.6957 137.268C99.9057 137.479 100.015 137.798 100.015 138.327V146.321H104.885C105.36 146.321 105.733 146.426 105.943 146.585C106.153 146.795 106.262 147.114 106.262 147.644V153.786V153.79Z" fill="white"/>
<path d="M131.097 153.366C131.097 153.895 130.992 154.265 130.778 154.424C130.568 154.634 130.195 154.689 129.72 154.689H118.867C118.867 154.848 118.867 154.953 118.921 155.058V155.377C118.921 156.435 119.186 157.124 119.715 157.493C120.193 157.917 120.987 158.077 122.095 157.968C123.208 157.914 124.426 157.863 125.803 157.758C127.075 157.704 128.397 157.548 129.775 157.334C130.249 157.279 130.568 157.334 130.782 157.493C130.942 157.704 131.047 158.077 131.152 158.606L131.681 163.477C131.735 164.006 131.626 164.375 131.416 164.484C131.152 164.644 130.782 164.749 130.304 164.803C128.187 165.122 126.172 165.332 124.216 165.437C122.204 165.597 120.244 165.647 118.232 165.647C114.844 165.647 112.409 164.749 110.977 162.893C109.495 161.092 108.752 158.233 108.752 154.21C108.752 151.775 108.752 149.126 108.807 146.266C108.807 143.407 108.861 140.758 108.966 138.323C108.966 137.794 109.126 137.475 109.336 137.265C109.495 137.105 109.81 137 110.343 137H129.724C130.199 137 130.572 137.105 130.782 137.265C130.992 137.475 131.101 137.794 131.101 138.323V143.193C131.101 143.722 130.996 144.092 130.782 144.251C130.572 144.461 130.199 144.516 129.724 144.516H118.816V147.165H129.724C130.199 147.165 130.572 147.27 130.782 147.43C130.992 147.64 131.101 147.959 131.101 148.488V153.358L131.097 153.366ZM118.812 178.041C118.812 176.454 119.131 175.023 119.765 173.645C120.399 172.323 121.407 171.156 122.784 170.152C124.161 169.199 125.908 168.456 128.078 167.876C130.195 167.347 132.789 167.083 135.863 167.083C138.936 167.083 141.476 167.347 143.647 167.876C145.763 168.46 147.564 169.199 148.941 170.152C150.319 171.16 151.322 172.323 151.96 173.645C152.594 175.023 152.913 176.45 152.913 178.041C152.913 179.632 152.594 181.06 151.96 182.437C151.326 183.76 150.319 184.927 148.941 185.931C147.564 186.884 145.763 187.627 143.647 188.206C141.476 188.735 138.881 189 135.863 189C132.844 189 130.199 188.735 128.078 188.206C125.908 187.623 124.161 186.884 122.784 185.931C121.407 184.923 120.403 183.76 119.765 182.437C119.131 181.06 118.812 179.632 118.812 178.041ZM142.904 178.041C142.904 177.512 142.694 177.034 142.32 176.614C141.896 176.244 141.422 175.925 140.784 175.661C140.095 175.451 139.352 175.237 138.508 175.132C137.66 175.026 136.761 174.972 135.863 174.972C134.91 174.972 134.062 175.026 133.214 175.132C132.365 175.237 131.626 175.451 130.988 175.661C130.3 175.925 129.771 176.244 129.401 176.614C128.977 177.038 128.818 177.512 128.818 178.041C128.818 178.57 128.977 179.049 129.401 179.469C129.771 179.839 130.3 180.158 130.988 180.422C131.622 180.632 132.365 180.846 133.214 180.951C134.062 181.056 134.91 181.111 135.863 181.111C136.761 181.111 137.664 181.056 138.508 180.951C139.352 180.846 140.095 180.632 140.784 180.422C141.418 180.158 141.896 179.839 142.32 179.469C142.69 179.045 142.904 178.57 142.904 178.041ZM135.439 165.282C134.91 165.282 134.591 165.227 134.381 165.017C134.17 164.858 134.062 164.488 134.062 163.959V138.327C134.062 137.797 134.167 137.478 134.381 137.268C134.591 137.109 134.91 137.004 135.439 137.004H142.056C142.534 137.004 142.904 137.109 143.114 137.268C143.324 137.478 143.433 137.797 143.433 138.327V147.114H145.763V138.327C145.763 137.797 145.868 137.478 146.082 137.268C146.292 137.109 146.611 137.004 147.14 137.004H153.758C154.236 137.004 154.606 137.109 154.816 137.268C155.026 137.478 155.135 137.797 155.135 138.327V164.22C155.135 164.749 155.03 165.118 154.816 165.278C154.606 165.488 154.232 165.542 153.758 165.542H147.14C146.611 165.542 146.292 165.488 146.082 165.278C145.872 165.118 145.763 164.749 145.763 164.22V155.167H143.433V163.955C143.433 164.484 143.328 164.854 143.114 165.013C142.904 165.223 142.53 165.278 142.056 165.278H135.439V165.282Z" fill="white"/>
<path d="M13.4784 219.516H7.75969V224.328H6.30656V219.516H0.665939V218.281H13.4784V219.516ZM2.05656 213.969C2.05656 213.344 2.2649 212.797 2.68156 212.328C3.10344 211.854 3.68938 211.492 4.43938 211.242C5.18938 210.987 6.05656 210.859 7.04094 210.859C8.02531 210.859 8.8925 210.987 9.6425 211.242C10.3977 211.492 10.9836 211.854 11.4003 212.328C11.817 212.797 12.0253 213.344 12.0253 213.969C12.0253 214.589 11.817 215.13 11.4003 215.594C10.9836 216.057 10.3977 216.417 9.6425 216.672C8.8925 216.922 8.02531 217.047 7.04094 217.047C6.06177 217.047 5.19459 216.922 4.43938 216.672C3.68938 216.417 3.10344 216.057 2.68156 215.594C2.2649 215.13 2.05656 214.589 2.05656 213.969ZM3.58781 213.969C3.58781 214.354 3.72844 214.69 4.00969 214.977C4.29615 215.258 4.69979 215.477 5.22063 215.633C5.74667 215.784 6.35344 215.859 7.04094 215.859C7.73365 215.859 8.34042 215.784 8.86125 215.633C9.38209 215.477 9.78573 215.258 10.0722 214.977C10.3639 214.69 10.5097 214.354 10.5097 213.969C10.5097 213.578 10.3639 213.24 10.0722 212.953C9.78573 212.667 9.38209 212.445 8.86125 212.289C8.34042 212.128 7.73365 212.047 7.04094 212.047C6.35344 212.047 5.74667 212.128 5.22063 212.289C4.69979 212.445 4.29615 212.667 4.00969 212.953C3.72844 213.24 3.58781 213.578 3.58781 213.969ZM25.8147 224.359H24.3303V210.328H25.8147V224.359ZM14.9709 211.594H21.5334V216.703H16.5022V219.766C17.7157 219.76 18.8381 219.721 19.8694 219.648C20.9058 219.576 21.9814 219.448 23.0959 219.266L23.2366 220.484C22.0751 220.677 20.9475 220.81 19.8538 220.883C18.76 220.956 17.5334 220.995 16.1741 221H14.9866V215.516H20.0178V212.797H14.9709V211.594ZM40.4791 217.25H27.6978V216.062H40.4791V217.25ZM29.2291 218.359H38.8541V221.75H30.6978V223H39.2447V224.172H29.2447V220.656H37.3853V219.5H29.2291V218.359ZM29.3697 210.734H38.8228V211.938H30.8541V213.859H38.9634V215.047H29.3697V210.734ZM45.7684 211.328C46.4976 211.328 47.1513 211.469 47.7294 211.75C48.3075 212.026 48.7606 212.419 49.0888 212.93C49.4169 213.435 49.5809 214.01 49.5809 214.656C49.5809 215.302 49.4169 215.88 49.0888 216.391C48.7606 216.896 48.3075 217.292 47.7294 217.578C47.1513 217.859 46.4976 218 45.7684 218C45.0393 218 44.383 217.859 43.7997 217.578C43.2216 217.292 42.7684 216.896 42.4403 216.391C42.1174 215.88 41.9559 215.302 41.9559 214.656C41.9559 214.01 42.1174 213.435 42.4403 212.93C42.7684 212.424 43.2216 212.031 43.7997 211.75C44.383 211.469 45.0393 211.328 45.7684 211.328ZM41.2841 220.109C43.0445 220.109 44.6695 220.081 46.1591 220.023C47.6486 219.966 49.0705 219.839 50.4247 219.641L50.5341 220.719C49.1382 220.99 47.719 221.161 46.2763 221.234C44.8388 221.307 43.2372 221.344 41.4716 221.344L41.2841 220.109ZM43.4247 214.656C43.4195 215.062 43.5158 215.422 43.7138 215.734C43.9169 216.042 44.1955 216.281 44.5497 216.453C44.9091 216.62 45.3153 216.703 45.7684 216.703C46.2216 216.703 46.6252 216.62 46.9794 216.453C47.3388 216.281 47.62 216.042 47.8231 215.734C48.0263 215.422 48.1278 215.062 48.1278 214.656C48.1278 214.255 48.0263 213.901 47.8231 213.594C47.62 213.281 47.3388 213.039 46.9794 212.867C46.62 212.695 46.2164 212.609 45.7684 212.609C45.3153 212.609 44.9091 212.695 44.5497 212.867C44.1955 213.039 43.9169 213.281 43.7138 213.594C43.5158 213.901 43.4195 214.255 43.4247 214.656ZM51.2997 210.328H52.7841V224.359H51.2997V210.328ZM69.9253 212.188H65.6597C65.6857 212.693 65.9071 213.172 66.3238 213.625C66.7456 214.078 67.3081 214.461 68.0113 214.773C68.7196 215.086 69.5034 215.292 70.3628 215.391L69.8003 216.594C69.0034 216.484 68.2613 216.289 67.5738 216.008C66.8915 215.727 66.3003 215.378 65.8003 214.961C65.3003 214.544 64.9279 214.076 64.6831 213.555C64.4331 214.076 64.0581 214.544 63.5581 214.961C63.0581 215.378 62.467 215.727 61.7847 216.008C61.1024 216.289 60.3628 216.484 59.5659 216.594L59.0034 215.391C59.8628 215.292 60.6441 215.086 61.3472 214.773C62.0555 214.461 62.618 214.078 63.0347 213.625C63.4514 213.172 63.6701 212.693 63.6909 212.188H59.4722V210.984H69.9253V212.188ZM58.3003 217.797H63.9409V215.578H65.4097V217.797H71.0972V219H58.3003V217.797ZM59.9097 220.047H61.4097V222.828H69.6284V224.031H59.9097V220.047ZM78.7928 217.656H72.3553V211.359H78.7928V217.656ZM73.1209 223.094C73.9959 222.958 74.7824 222.714 75.4803 222.359C76.1834 222 76.7355 221.56 77.1366 221.039C77.5428 220.513 77.7459 219.948 77.7459 219.344V218.938H79.2147V219.344C79.2095 219.948 79.4074 220.513 79.8084 221.039C80.2095 221.56 80.7642 222 81.4725 222.359C82.1808 222.714 82.9751 222.958 83.8553 223.094L83.2616 224.266C82.1782 224.078 81.2147 223.732 80.3709 223.227C79.5324 222.727 78.9048 222.107 78.4881 221.367C78.0663 222.107 77.4334 222.727 76.5897 223.227C75.7459 223.732 74.7824 224.078 73.6991 224.266L73.1209 223.094ZM77.3241 216.469V212.562H73.8084V216.469H77.3241ZM81.3241 210.328H82.8084V214.047H84.8397V215.297H82.8084V219.609H81.3241V210.328ZM91.3634 212.547H87.3166V214.062H91.2072V215.234H87.3166V216.844C88.2957 216.844 89.1239 216.823 89.8009 216.781C90.478 216.734 91.1655 216.651 91.8634 216.531L92.0041 217.719C91.2541 217.859 90.5197 217.956 89.8009 218.008C89.0874 218.055 88.202 218.078 87.1447 218.078H86.8009H85.8947V211.344H91.3634V212.547ZM87.8322 221.766C87.827 221.234 88.0119 220.781 88.3869 220.406C88.7619 220.026 89.3061 219.737 90.0197 219.539C90.7332 219.336 91.5822 219.234 92.5666 219.234C93.5561 219.234 94.4077 219.336 95.1213 219.539C95.8348 219.737 96.3817 220.026 96.7619 220.406C97.1421 220.781 97.3322 221.234 97.3322 221.766C97.3322 222.302 97.1421 222.76 96.7619 223.141C96.3817 223.521 95.8348 223.807 95.1213 224C94.4077 224.198 93.5561 224.297 92.5666 224.297C91.5822 224.297 90.7332 224.198 90.0197 224C89.3061 223.807 88.7619 223.521 88.3869 223.141C88.0119 222.76 87.827 222.302 87.8322 221.766ZM89.3009 221.766C89.2957 222.208 89.577 222.549 90.1447 222.789C90.7124 223.029 91.5197 223.151 92.5666 223.156C93.6082 223.151 94.4129 223.029 94.9806 222.789C95.5535 222.549 95.8426 222.208 95.8478 221.766C95.8426 221.323 95.5535 220.984 94.9806 220.75C94.4129 220.51 93.6082 220.391 92.5666 220.391C91.5197 220.391 90.7124 220.51 90.1447 220.75C89.577 220.984 89.2957 221.323 89.3009 221.766ZM92.8322 210.594H94.2541V213.984H95.8478V210.344H97.2541V219.047H95.8478V215.188H94.2541V218.547H92.8322V210.594ZM109.395 217.656H102.958V211.359H109.395V217.656ZM103.723 223.094C104.598 222.958 105.385 222.714 106.083 222.359C106.786 222 107.338 221.56 107.739 221.039C108.145 220.513 108.348 219.948 108.348 219.344V218.938H109.817V219.344C109.812 219.948 110.01 220.513 110.411 221.039C110.812 221.56 111.367 222 112.075 222.359C112.783 222.714 113.578 222.958 114.458 223.094L113.864 224.266C112.781 224.078 111.817 223.732 110.973 223.227C110.135 222.727 109.507 222.107 109.091 221.367C108.669 222.107 108.036 222.727 107.192 223.227C106.348 223.732 105.385 224.078 104.302 224.266L103.723 223.094ZM107.927 216.469V212.562H104.411V216.469H107.927ZM111.927 210.328H113.411V214.047H115.442V215.297H113.411V219.609H111.927V210.328ZM121.107 212.562C121.107 213.141 121.25 213.695 121.536 214.227C121.823 214.758 122.232 215.227 122.763 215.633C123.294 216.034 123.914 216.339 124.622 216.547L123.872 217.703C123.065 217.453 122.359 217.076 121.755 216.57C121.151 216.06 120.687 215.458 120.364 214.766C120.047 215.51 119.583 216.159 118.974 216.711C118.364 217.263 117.643 217.677 116.81 217.953L116.06 216.781C116.773 216.562 117.396 216.24 117.927 215.812C118.463 215.38 118.877 214.883 119.169 214.32C119.461 213.758 119.607 213.172 119.607 212.562V212.406H116.466V211.203H124.185V212.406H121.107V212.562ZM118.372 218.562H119.825V220.125H126.06V218.562H127.528V224.156H118.372V218.562ZM126.06 222.953V221.297H119.825V222.953H126.06ZM126.044 210.328H127.528V217.906H126.044V210.328ZM145.826 222.578H133.013V221.344H138.654V218.109H134.482V211.453H144.295V218.109H140.123V221.344H145.826V222.578ZM142.842 216.938V212.641H135.92V216.938H142.842ZM152.897 210.625C153.917 210.625 154.803 210.732 155.553 210.945C156.303 211.154 156.881 211.461 157.287 211.867C157.693 212.273 157.897 212.755 157.897 213.312C157.897 213.859 157.693 214.333 157.287 214.734C156.881 215.13 156.303 215.432 155.553 215.641C154.803 215.849 153.917 215.953 152.897 215.953C151.881 215.953 150.996 215.849 150.24 215.641C149.49 215.432 148.912 215.13 148.506 214.734C148.1 214.333 147.897 213.859 147.897 213.312C147.897 212.755 148.1 212.273 148.506 211.867C148.912 211.461 149.49 211.154 150.24 210.945C150.996 210.732 151.881 210.625 152.897 210.625ZM146.522 217.031H159.287V218.234H146.522V217.031ZM148.053 219.484H157.725V224.156H148.053V219.484ZM149.428 213.312C149.428 213.62 149.566 213.885 149.842 214.109C150.118 214.328 150.516 214.497 151.037 214.617C151.558 214.737 152.178 214.797 152.897 214.797C153.61 214.797 154.227 214.737 154.748 214.617C155.269 214.497 155.667 214.328 155.943 214.109C156.225 213.885 156.365 213.62 156.365 213.312C156.365 212.995 156.227 212.724 155.951 212.5C155.675 212.271 155.279 212.096 154.764 211.977C154.253 211.857 153.647 211.797 152.943 211.797C151.844 211.797 150.982 211.93 150.357 212.195C149.732 212.456 149.423 212.828 149.428 213.312ZM156.287 222.953V220.672H149.522V222.953H156.287Z" fill="white"/>
</svg>
