<svg width="30" height="30" viewBox="0 0 30 30" fill="none" xmlns="http://www.w3.org/2000/svg">
<g clip-path="url(#clip0_8552_5742)">
<path d="M26.25 12.1874H25.2691C25.0336 9.62671 23.8498 7.24641 21.95 5.51337C20.0502 3.78032 17.5715 2.81958 15 2.81958C12.4285 2.81958 9.94976 3.78032 8.04997 5.51337C6.15019 7.24641 4.96642 9.62671 4.73086 12.1874H3.75C3.50136 12.1874 3.2629 12.2862 3.08709 12.462C2.91127 12.6378 2.8125 12.8763 2.8125 13.1249C2.81662 15.3544 3.43019 17.5404 4.58685 19.4464C5.74351 21.3524 7.39925 22.9059 9.375 23.939V24.3749C9.375 24.8722 9.57254 25.3491 9.92418 25.7007C10.2758 26.0524 10.7527 26.2499 11.25 26.2499H18.75C19.2473 26.2499 19.7242 26.0524 20.0758 25.7007C20.4275 25.3491 20.625 24.8722 20.625 24.3749V23.939C22.6008 22.9059 24.2565 21.3524 25.4132 19.4464C26.5698 17.5404 27.1834 15.3544 27.1875 13.1249C27.1875 12.8763 27.0887 12.6378 26.9129 12.462C26.7371 12.2862 26.4986 12.1874 26.25 12.1874ZM20.3297 6.58936C20.5445 6.76514 20.7504 6.95069 20.9473 7.146C18.4516 8.02391 16.3893 9.82819 15.1875 12.1851H11.7305C12.3164 10.5426 13.3952 9.12109 14.8193 8.11473C16.2435 7.10837 17.9436 6.56624 19.6875 6.56241C19.902 6.56241 20.1164 6.57295 20.3297 6.58936ZM17.3578 12.1874C18.4944 10.4822 20.214 9.25012 22.1941 8.72217C22.8416 9.77528 23.2478 10.9587 23.3836 12.1874H17.3578ZM15 4.68741C15.7523 4.6879 16.5012 4.7892 17.2266 4.98858C15.4599 5.42683 13.8399 6.32304 12.53 7.58688C11.2201 8.85073 10.2664 10.4375 9.76523 12.1874H6.61641C6.84896 10.1259 7.83202 8.2221 9.37817 6.8389C10.9243 5.45571 12.9254 4.68987 15 4.68741Z" fill="white"/>
</g>
<defs>
<clipPath id="clip0_8552_5742">
<rect width="30" height="30" fill="white"/>
</clipPath>
</defs>
</svg>
