<svg width="24" height="24" viewBox="0 0 24 24" fill="none" xmlns="http://www.w3.org/2000/svg">
<path d="M9.04149 14.3056L18.0219 5.22337C18.3009 4.94116 18.6561 4.80005 19.0874 4.80005C19.5186 4.80005 19.8738 4.94116 20.1528 5.22337C20.4319 5.50559 20.5714 5.86477 20.5714 6.30092C20.5714 6.73707 20.4319 7.09626 20.1528 7.37847L10.107 17.5382C9.80254 17.8461 9.44738 18 9.04149 18C8.63559 18 8.28044 17.8461 7.97602 17.5382L4.01855 13.5359C3.7395 13.2537 3.59998 12.8945 3.59998 12.4584C3.59998 12.0222 3.7395 11.663 4.01855 11.3808C4.2976 11.0986 4.65276 10.9575 5.08402 10.9575C5.51529 10.9575 5.87044 11.0986 6.1495 11.3808L9.04149 14.3056Z" fill="#FF531A"/>
</svg>
