<svg width="161" height="110" viewBox="0 0 161 110" fill="none" xmlns="http://www.w3.org/2000/svg">
<path d="M74.3874 75.4761C73.7381 74.7805 73.1746 74.1928 72.6355 73.5932C65.2114 65.318 62.0752 55.6276 62.7 44.702C63.043 38.6455 64.5744 32.9729 68.5437 28.1517C74.1301 21.3636 83.7472 21.2797 89.5052 27.9238C92.96 31.9055 94.5648 36.6547 95.2141 41.7038C96.4392 51.1303 94.8589 60.089 89.6522 68.2203C88.1943 70.499 86.2954 72.5018 84.5925 74.6366C84.421 74.8524 84.2127 75.0443 83.8575 75.4041C84.568 75.8478 85.1683 76.3276 85.8421 76.6514C91.0243 79.1099 96.4392 80.669 102.246 80.9689C105.787 81.1488 109.278 81.0888 112.77 80.657C114.399 80.4532 115.6 81.2807 115.98 82.7918C116.335 84.171 115.624 85.5862 114.142 86.0659C113.101 86.4017 111.974 86.5216 110.871 86.6535C102.026 87.7089 93.5602 86.2338 85.4623 82.7198C83.4409 81.8443 81.5788 80.6091 79.6186 79.5777C79.3123 79.4218 78.7733 79.3378 78.5283 79.4937C73.2971 82.9357 67.5514 85.0945 61.3646 86.1978C55.9864 87.1572 50.596 87.2892 45.181 86.4137C42.4123 85.9699 41.1994 83.5833 42.7553 81.6045C43.4536 80.717 44.3847 80.5611 45.4505 80.645C47.6312 80.8369 49.8119 81.1128 51.9926 81.1368C59.6372 81.2447 66.8775 79.6256 73.5911 75.9558C73.8116 75.8358 74.0076 75.7039 74.3629 75.4881L74.3874 75.4761ZM90.179 47.3525C89.9339 45.1937 89.8114 43.011 89.4072 40.8762C88.6721 36.9905 87.3735 33.3566 84.2005 30.6102C81.444 28.2236 77.0581 28.1397 74.2282 30.4423C71.9005 32.3492 70.4671 34.7958 69.634 37.5542C67.0123 46.2251 67.8454 54.6562 71.8025 62.7755C73.3951 66.0256 75.6125 68.8799 78.369 71.3145C78.957 71.8422 79.3736 71.8302 79.8759 71.2785C80.8927 70.1871 82.032 69.1917 82.9509 68.0284C87.7655 61.948 90.0075 55.004 90.179 47.3285V47.3525Z" fill="#D4DADE"/>
<path d="M54.0698 53.5C54.0698 57.6421 51.6074 61 48.5698 61C45.5323 61 43.0698 57.6421 43.0698 53.5C43.0698 49.3579 45.5323 46 48.5698 46C51.6074 46 54.0698 49.3579 54.0698 53.5Z" fill="#D4DADE"/>
<path fill-rule="evenodd" clip-rule="evenodd" d="M91.8096 79.9266C93.1061 80.2609 93.8861 81.583 93.5518 82.8795C91.9083 89.2525 85.2843 93.3596 79.0751 92.8166C76.0886 92.5554 72.7921 91.301 70.3772 89.4684C70.1125 89.2675 69.8468 88.9778 69.7195 88.839C69.5309 88.6334 69.3078 88.3776 69.0696 88.0936C68.5943 87.527 68.0203 86.8016 67.4993 86.0672C67.0058 85.3717 66.4552 84.5237 66.1306 83.7479C65.9913 83.415 65.7412 82.7542 65.7956 81.997C65.8265 81.5669 65.9666 80.9673 66.4201 80.4212C66.8901 79.8551 67.4962 79.5872 68.0136 79.4871C69.3282 79.2328 70.6 80.0924 70.8543 81.4069C70.9162 81.7273 70.912 82.0452 70.8512 82.3464C70.9983 82.5942 71.1997 82.9034 71.4538 83.2616C71.8834 83.8671 72.3737 84.4879 72.7845 84.9776C72.9893 85.2218 73.1645 85.4217 73.2934 85.5623C73.3406 85.6138 73.3743 85.6492 73.396 85.6717C75.0693 86.9105 77.4459 87.8069 79.4975 87.9863C83.5793 88.3433 87.8618 85.5266 88.8567 81.6688C89.191 80.3723 90.5131 79.5923 91.8096 79.9266ZM70.5799 81.8118C70.5807 81.8123 70.5857 81.8251 70.5924 81.849C70.5824 81.8234 70.5791 81.8114 70.5799 81.8118Z" fill="#D4DADE"/>
<path d="M115.07 53.5005C115.07 57.6426 112.607 61.0005 109.57 61.0005C106.532 61.0005 104.07 57.6426 104.07 53.5005C104.07 49.3584 106.532 46.0005 109.57 46.0005C112.607 46.0005 115.07 49.3584 115.07 53.5005Z" fill="#D4DADE"/>
<path fill-rule="evenodd" clip-rule="evenodd" d="M106.684 30.3769C107.73 30.0307 108.862 30.5385 109.211 31.5112C110.139 34.0938 114.094 39.3165 122.457 38.4372C123.556 38.3217 124.529 39.0598 124.631 40.0858C124.733 41.1117 123.925 42.0371 122.826 42.1526C112.081 43.2825 106.749 36.4574 105.422 32.765C105.073 31.7923 105.638 30.7231 106.684 30.3769Z" fill="#D4DADE"/>
</svg>
