<svg width="30" height="30" viewBox="0 0 30 30" fill="none" xmlns="http://www.w3.org/2000/svg">
<mask id="mask0_8552_5745" style="mask-type:alpha" maskUnits="userSpaceOnUse" x="0" y="0" width="30" height="30">
<rect width="30" height="30" fill="#D9D9D9"/>
</mask>
<g mask="url(#mask0_8552_5745)">
<path d="M5 26.25L2.5 23.75H27.5L25 26.25H5ZM3.75 22.5C3.875 22.125 4.04167 21.7708 4.25 21.4375C4.45833 21.1042 4.70833 20.7917 5 20.5V11.25H3.75V9.375H5V8.4375H3.75V6.5625H5V5.625H3.75V3.75H12.1875C12.9792 3.75 13.6458 4.02083 14.1875 4.5625C14.7292 5.10417 15 5.77083 15 6.5625H26.25V8.4375H15C15 9.22917 14.7292 9.89583 14.1875 10.4375C13.6458 10.9792 12.9792 11.25 12.1875 11.25H10V18.875C10.3125 18.9167 10.6094 18.9792 10.8906 19.0625C11.1719 19.1458 11.4375 19.2708 11.6875 19.4375C12.1875 18.1458 13.0156 17.0833 14.1719 16.25C15.3281 15.4167 16.6458 15 18.125 15C20.1458 15 21.8333 15.7396 23.1875 17.2188C24.5417 18.6979 25.125 20.4583 24.9375 22.5H3.75ZM10 6.5625H12.5V5.625H10V6.5625ZM10 9.375H12.5V8.4375H10V9.375ZM6.875 6.5625H8.125V5.625H6.875V6.5625ZM6.875 9.375H8.125V8.4375H6.875V9.375ZM6.875 19.1875C7.0625 19.0833 7.26042 19.0052 7.46875 18.9531C7.67708 18.901 7.89583 18.8542 8.125 18.8125V11.25H6.875V19.1875Z" fill="white"/>
</g>
</svg>
