<svg width="20" height="20" viewBox="0 0 20 20" fill="none" xmlns="http://www.w3.org/2000/svg">
<path fill-rule="evenodd" clip-rule="evenodd" d="M5.83317 1.70801C5.83317 1.22476 6.20627 0.833008 6.6665 0.833008H12.4998C12.9601 0.833008 13.3332 1.22476 13.3332 1.70801V3.45768H14.9998H16.6665C17.1267 3.45768 17.4998 3.84943 17.4998 4.33268C17.4998 4.81593 17.1267 5.20768 16.6665 5.20768H15.8332V16.5827C15.8332 17.5492 15.087 18.3327 14.1665 18.3327H4.99984C4.07936 18.3327 3.33317 17.5492 3.33317 16.5827V5.20768H2.49984C2.0396 5.20768 1.6665 4.81593 1.6665 4.33268C1.6665 3.84943 2.0396 3.45768 2.49984 3.45768H4.1665H5.83317V1.70801ZM12.4998 5.20801C12.4922 5.20801 12.4845 5.2079 12.4769 5.20768H6.68946C6.68184 5.2079 6.67418 5.20801 6.6665 5.20801C6.65883 5.20801 6.65117 5.2079 6.64355 5.20768H4.99984V16.5827H14.1665V5.20768H12.5228C12.5152 5.2079 12.5075 5.20801 12.4998 5.20801ZM11.6665 2.58301V3.45768H7.49984V2.58301H11.6665ZM7.49984 7.83301C7.96007 7.83301 8.33317 8.22476 8.33317 8.70801V13.083C8.33317 13.5663 7.96007 13.958 7.49984 13.958C7.0396 13.958 6.6665 13.5663 6.6665 13.083V8.70801C6.6665 8.22476 7.0396 7.83301 7.49984 7.83301ZM11.6665 7.83301C12.1267 7.83301 12.4998 8.22476 12.4998 8.70801V13.083C12.4998 13.5663 12.1267 13.958 11.6665 13.958C11.2063 13.958 10.8332 13.5663 10.8332 13.083V8.70801C10.8332 8.22476 11.2063 7.83301 11.6665 7.83301Z" fill="#9AA9B2"/>
</svg>
