<svg width="20" height="20" viewBox="0 0 20 20" fill="none" xmlns="http://www.w3.org/2000/svg">
<path fill-rule="evenodd" clip-rule="evenodd" d="M3.33333 8.33301C3.79357 8.33301 4.16667 8.7061 4.16667 9.16634V16.6663H15.8333V9.16634C15.8333 8.7061 16.2064 8.33301 16.6667 8.33301C17.1269 8.33301 17.5 8.7061 17.5 9.16634V16.6663C17.5 17.5868 16.7538 18.333 15.8333 18.333H4.16667C3.24619 18.333 2.5 17.5868 2.5 16.6663V9.16634C2.5 8.7061 2.8731 8.33301 3.33333 8.33301Z" fill="#9AA9B2"/>
<path fill-rule="evenodd" clip-rule="evenodd" d="M9.41091 2.73504C9.73634 2.42165 10.264 2.42165 10.5894 2.73504L13.9228 5.94491C14.2482 6.2583 14.2482 6.76639 13.9228 7.07978C13.5973 7.39316 13.0697 7.39316 12.7442 7.07978L10.8335 5.2398V12.5309C10.8335 12.9741 10.4604 13.3333 10.0002 13.3333C9.53993 13.3333 9.16683 12.9741 9.16683 12.5309V5.2398L7.25609 7.07978C6.93065 7.39316 6.40301 7.39316 6.07757 7.07978C5.75214 6.76639 5.75214 6.2583 6.07757 5.94491L9.41091 2.73504Z" fill="#9AA9B2"/>
</svg>
