<svg width="30" height="40" viewBox="0 0 30 40" fill="none" xmlns="http://www.w3.org/2000/svg">
<ellipse cx="15" cy="37.0002" rx="13" ry="3" fill="#D4DADE"/>
<path d="M30 15.2497C30 23.6711 21.9479 31.4796 17.6417 35.884C16.1824 37.3742 13.8143 37.3742 12.355 35.884C8.05212 31.4796 0 24.5 0 15.2497C0 6.82844 6.71661 0 15 0C23.2834 0 30 6.82844 30 15.2497Z" fill="#FF531A"/>
<mask id="mask0_8999_2594" style="mask-type:alpha" maskUnits="userSpaceOnUse" x="4" y="4" width="22" height="22">
<rect x="4" y="4" width="22" height="22" fill="#D9D9D9"/>
</mask>
<g mask="url(#mask0_8999_2594)">
<path d="M15 20.5C15.3208 20.5 15.592 20.3892 15.8135 20.1677C16.0351 19.9462 16.1458 19.675 16.1458 19.3542C16.1458 19.0333 16.0351 18.7622 15.8135 18.5406C15.592 18.3191 15.3208 18.2083 15 18.2083C14.6792 18.2083 14.408 18.3191 14.1865 18.5406C13.9649 18.7622 13.8542 19.0333 13.8542 19.3542C13.8542 19.675 13.9649 19.9462 14.1865 20.1677C14.408 20.3892 14.6792 20.5 15 20.5ZM14.175 16.9708H15.8708C15.8708 16.4208 15.9319 16.016 16.0542 15.7563C16.1764 15.4965 16.4361 15.1681 16.8333 14.7708C17.3681 14.2361 17.7462 13.7892 17.9677 13.4302C18.1892 13.0712 18.3 12.6625 18.3 12.2042C18.3 11.3944 18.025 10.7413 17.475 10.2448C16.925 9.74826 16.184 9.5 15.2521 9.5C14.4118 9.5 13.6976 9.70625 13.1094 10.1188C12.5212 10.5312 12.1125 11.1042 11.8833 11.8375L13.3958 12.4333C13.5028 12.0208 13.7167 11.6885 14.0375 11.4365C14.3583 11.1844 14.7326 11.0583 15.1604 11.0583C15.5729 11.0583 15.9167 11.1691 16.1917 11.3906C16.4667 11.6122 16.6042 11.9062 16.6042 12.2729C16.6042 12.5326 16.5201 12.8076 16.3521 13.0979C16.184 13.3882 15.9014 13.709 15.5042 14.0604C15 14.5035 14.6524 14.9274 14.4615 15.3323C14.2705 15.7372 14.175 16.2833 14.175 16.9708ZM8.58333 23.25C8.07917 23.25 7.64757 23.0705 7.28854 22.7115C6.92951 22.3524 6.75 21.9208 6.75 21.4167V8.58333C6.75 8.07917 6.92951 7.64757 7.28854 7.28854C7.64757 6.92951 8.07917 6.75 8.58333 6.75H21.4167C21.9208 6.75 22.3524 6.92951 22.7115 7.28854C23.0705 7.64757 23.25 8.07917 23.25 8.58333V21.4167C23.25 21.9208 23.0705 22.3524 22.7115 22.7115C22.3524 23.0705 21.9208 23.25 21.4167 23.25H8.58333Z" fill="white"/>
</g>
</svg>
