<svg width="29" height="29" viewBox="0 0 29 29" fill="none" xmlns="http://www.w3.org/2000/svg">
<g id="MagnifyingGlass" clip-path="url(#clip0_7609_12079)">
<g id="Group 2642">
<path id="Vector (Stroke)" fill-rule="evenodd" clip-rule="evenodd" d="M11.5479 16.9596C14.0343 16.9596 16.0499 14.9439 16.0499 12.4575C16.0499 9.97111 14.0343 7.95547 11.5479 7.95547C9.06144 7.95547 7.0458 9.97111 7.0458 12.4575C7.0458 14.9439 9.06144 16.9596 11.5479 16.9596ZM19.0513 12.4575C19.0513 16.6016 15.6919 19.961 11.5479 19.961C7.40383 19.961 4.04443 16.6016 4.04443 12.4575C4.04443 8.3135 7.40383 4.9541 11.5479 4.9541C15.6919 4.9541 19.0513 8.3135 19.0513 12.4575Z" fill="#D4DADE"/>
<path id="Vector (Stroke)_2" fill-rule="evenodd" clip-rule="evenodd" d="M14.7921 15.7022C15.3781 15.1162 16.3283 15.1162 16.9144 15.7022L22.1133 20.9012C22.6994 21.4872 22.6994 22.4374 22.1133 23.0235C21.5273 23.6095 20.5771 23.6095 19.991 23.0235L14.7921 17.8245C14.206 17.2385 14.206 16.2883 14.7921 15.7022Z" fill="#D4DADE"/>
</g>
</g>
<defs>
<clipPath id="clip0_7609_12079">
<rect width="28" height="28" fill="white" transform="translate(0.125 0.5)"/>
</clipPath>
</defs>
</svg>
