<svg width="30" height="40" viewBox="0 0 30 40" fill="none" xmlns="http://www.w3.org/2000/svg">
<ellipse cx="15" cy="37" rx="13" ry="3" fill="#D4DADE"/>
<path d="M30 15.2497C30 23.6711 21.9479 31.4796 17.6417 35.884C16.1824 37.3742 13.8143 37.3742 12.355 35.884C8.05212 31.4796 0 24.5 0 15.2497C0 6.82844 6.71661 0 15 0C23.2834 0 30 6.82844 30 15.2497Z" fill="#FF531A"/>
<mask id="mask0_8999_2532" style="mask-type:alpha" maskUnits="userSpaceOnUse" x="3" y="4" width="24" height="24">
<rect x="3" y="4" width="24" height="24" fill="#D9D9D9"/>
</mask>
<g mask="url(#mask0_8999_2532)">
<path d="M6.81818 19.6469C6.31818 19.6469 5.89015 19.4715 5.53409 19.1206C5.17803 18.7697 5 18.3478 5 17.8551V9.79183C5 9.29908 5.17803 8.87725 5.53409 8.52635C5.89015 8.17545 6.31818 8 6.81818 8H23.1818C23.6818 8 24.1098 8.17545 24.4659 8.52635C24.822 8.87725 25 9.29908 25 9.79183V17.8551C25 18.3478 24.822 18.7697 24.4659 19.1206C24.1098 19.4715 23.6818 19.6469 23.1818 19.6469H6.81818ZM6.88636 22.7826L6.81818 21.4387L23.1591 20.5876L23.2273 21.9315L6.88636 22.7826ZM6.81818 25V23.6561H23.1818V25H6.81818ZM13.4091 16.5112C14.5303 16.5112 15.6098 16.3171 16.6477 15.9289C17.6856 15.5406 18.5909 14.9433 19.3636 14.137C19.4545 14.7642 19.7879 15.242 20.3636 15.5705C20.9394 15.899 21.5758 16.0632 22.2727 16.0632V11.5837C21.5758 11.5837 20.9394 11.7516 20.3636 12.0876C19.7879 12.4236 19.4545 12.9126 19.3636 13.5547C18.5606 12.7782 17.6477 12.1809 16.625 11.7628C15.6023 11.3448 14.5303 11.1357 13.4091 11.1357C12.2121 11.1357 11.0606 11.341 9.95455 11.7516C8.84849 12.1623 7.95455 12.8529 7.27273 13.8235C7.95455 14.794 8.84849 15.4846 9.95455 15.8953C11.0606 16.3059 12.2121 16.5112 13.4091 16.5112Z" fill="white"/>
</g>
</svg>
