<svg width="16" height="16" viewBox="0 0 16 16" fill="none" xmlns="http://www.w3.org/2000/svg">
<circle cx="8" cy="8" r="8" fill="#FF2459"/>
<path d="M11.8315 11.0232C11.9388 11.1305 11.999 11.2761 11.999 11.4278C11.999 11.5796 11.9388 11.7251 11.8315 11.8324C11.7241 11.9397 11.5786 12 11.4268 12C11.2751 12 11.1295 11.9397 11.0222 11.8324L8 8.80942L4.97682 11.8315C4.86951 11.9388 4.72397 11.999 4.57221 11.999C4.42045 11.999 4.27491 11.9388 4.1676 11.8315C4.06029 11.7242 4 11.5786 4 11.4269C4 11.2751 4.06029 11.1296 4.1676 11.0223L7.19077 8.00024L4.16855 4.97724C4.06124 4.86994 4.00095 4.7244 4.00095 4.57265C4.00095 4.4209 4.06124 4.27537 4.16855 4.16806C4.27586 4.06076 4.4214 4.00048 4.57316 4.00048C4.72492 4.00048 4.87047 4.06076 4.97778 4.16806L8 7.19106L11.0232 4.16759C11.1305 4.06028 11.276 4 11.4278 4C11.5795 4 11.7251 4.06028 11.8324 4.16759C11.9397 4.27489 12 4.42043 12 4.57218C12 4.72393 11.9397 4.86946 11.8324 4.97677L8.80923 8.00024L11.8315 11.0232Z" fill="white"/>
</svg>
