<svg width="161" height="110" viewBox="0 0 161 110" fill="none" xmlns="http://www.w3.org/2000/svg">
<path d="M74.3176 75.4761C73.6683 74.7805 73.1047 74.1928 72.5657 73.5932C65.1416 65.318 62.0053 55.6276 62.6301 44.702C62.9732 38.6455 64.5045 32.9729 68.4739 28.1517C74.0603 21.3636 83.6774 21.2797 89.4353 27.9238C92.8901 31.9055 94.495 36.6547 95.1443 41.7038C96.3694 51.1303 94.789 60.089 89.5824 68.2203C88.1245 70.499 86.2256 72.5018 84.5227 74.6366C84.3512 74.8524 84.1429 75.0443 83.7876 75.4041C84.4982 75.8478 85.0985 76.3276 85.7723 76.6514C90.9545 79.1099 96.3694 80.669 102.176 80.9689C105.717 81.1488 109.208 81.0888 112.7 80.657C114.329 80.4532 115.53 81.2807 115.91 82.7918C116.265 84.171 115.554 85.5862 114.072 86.0659C113.031 86.4017 111.904 86.5216 110.801 86.6535C101.956 87.7089 93.4904 86.2338 85.3925 82.7198C83.3711 81.8443 81.5089 80.6091 79.5488 79.5777C79.2425 79.4218 78.7035 79.3378 78.4584 79.4937C73.2273 82.9357 67.4815 85.0945 61.2948 86.1978C55.9166 87.1572 50.5261 87.2892 45.1112 86.4137C42.3425 85.9699 41.1296 83.5833 42.6855 81.6045C43.3838 80.717 44.3149 80.5611 45.3807 80.645C47.5614 80.8369 49.7421 81.1128 51.9227 81.1368C59.5674 81.2447 66.8077 79.6256 73.5213 75.9558C73.7418 75.8358 73.9378 75.7039 74.2931 75.4881L74.3176 75.4761ZM90.1091 47.3525C89.8641 45.1937 89.7416 43.011 89.3373 40.8762C88.6023 36.9905 87.3037 33.3566 84.1306 30.6102C81.3742 28.2236 76.9883 28.1397 74.1583 30.4423C71.8306 32.3492 70.3973 34.7958 69.5642 37.5542C66.9425 46.2251 67.7756 54.6562 71.7326 62.7755C73.3253 66.0256 75.5427 68.8799 78.2992 71.3145C78.8872 71.8422 79.3038 71.8302 79.806 71.2785C80.8229 70.1871 81.9622 69.1917 82.8811 68.0284C87.6957 61.948 89.9376 55.004 90.1091 47.3285V47.3525Z" fill="#D4DADE"/>
<path d="M54 53.5C54 57.6421 51.5376 61 48.5 61C45.4624 61 43 57.6421 43 53.5C43 49.3579 45.4624 46 48.5 46C51.5376 46 54 49.3579 54 53.5Z" fill="#D4DADE"/>
<path fill-rule="evenodd" clip-rule="evenodd" d="M91.7398 79.9266C93.0363 80.2609 93.8163 81.583 93.482 82.8795C91.8385 89.2525 85.2145 93.3596 79.0052 92.8166C76.0187 92.5554 72.7223 91.301 70.3074 89.4684C70.0427 89.2675 69.777 88.9778 69.6497 88.839C69.4611 88.6334 69.2379 88.3776 68.9997 88.0936C68.5244 87.527 67.9505 86.8016 67.4295 86.0672C66.936 85.3717 66.3854 84.5237 66.0607 83.7479C65.9214 83.415 65.6714 82.7542 65.7258 81.997C65.7567 81.5669 65.8968 80.9673 66.3503 80.4212C66.8203 79.8551 67.4264 79.5872 67.9438 79.4871C69.2584 79.2328 70.5302 80.0924 70.7844 81.4069C70.8464 81.7273 70.8422 82.0452 70.7814 82.3464C70.9285 82.5942 71.1298 82.9034 71.384 83.2616C71.8136 83.8671 72.3039 84.4879 72.7146 84.9776C72.9195 85.2218 73.0947 85.4217 73.2236 85.5623C73.2708 85.6138 73.3045 85.6492 73.3262 85.6717C74.9994 86.9105 77.3761 87.8069 79.4276 87.9863C83.5094 88.3433 87.792 85.5266 88.7869 81.6688C89.1212 80.3723 90.4433 79.5923 91.7398 79.9266ZM70.5101 81.8118C70.5109 81.8123 70.5159 81.8251 70.5226 81.849C70.5126 81.8234 70.5092 81.8114 70.5101 81.8118Z" fill="#D4DADE"/>
<path d="M115 53.5002C115 57.6424 112.538 61.0002 109.5 61.0002C106.462 61.0002 104 57.6424 104 53.5002C104 49.3581 106.462 46.0002 109.5 46.0002C112.538 46.0002 115 49.3581 115 53.5002Z" fill="#D4DADE"/>
<path fill-rule="evenodd" clip-rule="evenodd" d="M106.614 30.3766C107.66 30.0304 108.792 30.5383 109.141 31.5109C110.069 34.0936 114.024 39.3163 122.387 38.4369C123.486 38.3214 124.459 39.0595 124.561 40.0855C124.663 41.1115 123.855 42.0369 122.757 42.1523C112.011 43.2822 106.679 36.4571 105.353 32.7647C105.003 31.792 105.568 30.7228 106.614 30.3766Z" fill="#D4DADE"/>
</svg>
