<svg width="30" height="40" viewBox="0 0 30 40" fill="none" xmlns="http://www.w3.org/2000/svg">
<ellipse cx="15" cy="37.0002" rx="13" ry="3" fill="#D4DADE"/>
<path d="M30 15.2497C30 23.6711 21.9479 31.4796 17.6417 35.884C16.1824 37.3742 13.8143 37.3742 12.355 35.884C8.05212 31.4796 0 24.5 0 15.2497C0 6.82844 6.71661 0 15 0C23.2834 0 30 6.82844 30 15.2497Z" fill="#FF531A"/>
<g clip-path="url(#clip0_8999_2585)">
<path d="M23.4062 12.5625H21.9688V11.1875C21.9688 10.2758 21.5901 9.40148 20.9162 8.75682C20.2422 8.11216 19.3281 7.75 18.375 7.75H17.3705C16.3005 6.87344 14.8549 6.375 13.3438 6.375C10.1732 6.375 7.59375 8.53375 7.59375 11.1875V22.875C7.59375 23.2397 7.7452 23.5894 8.01478 23.8473C8.28437 24.1051 8.65 24.25 9.03125 24.25H20.5312C20.9125 24.25 21.2781 24.1051 21.5477 23.8473C21.8173 23.5894 21.9688 23.2397 21.9688 22.875V22.1875H23.4062C23.9781 22.1875 24.5266 21.9702 24.931 21.5834C25.3353 21.1966 25.5625 20.672 25.5625 20.125V14.625C25.5625 14.078 25.3353 13.5534 24.931 13.1666C24.5266 12.7798 23.9781 12.5625 23.4062 12.5625ZM13.3438 20.8125C13.3438 20.9948 13.268 21.1697 13.1332 21.2986C12.9984 21.4276 12.8156 21.5 12.625 21.5C12.4344 21.5 12.2516 21.4276 12.1168 21.2986C11.982 21.1697 11.9062 20.9948 11.9062 20.8125V13.9375C11.9062 13.7552 11.982 13.5803 12.1168 13.4514C12.2516 13.3224 12.4344 13.25 12.625 13.25C12.8156 13.25 12.9984 13.3224 13.1332 13.4514C13.268 13.5803 13.3438 13.7552 13.3438 13.9375V20.8125ZM17.6562 20.8125C17.6562 20.9948 17.5805 21.1697 17.4457 21.2986C17.3109 21.4276 17.1281 21.5 16.9375 21.5C16.7469 21.5 16.5641 21.4276 16.4293 21.2986C16.2945 21.1697 16.2188 20.9948 16.2188 20.8125V13.9375C16.2188 13.7552 16.2945 13.5803 16.4293 13.4514C16.5641 13.3224 16.7469 13.25 16.9375 13.25C17.1281 13.25 17.3109 13.3224 17.4457 13.4514C17.5805 13.5803 17.6562 13.7552 17.6562 13.9375V20.8125ZM9.12109 10.5C9.5218 8.9325 11.2639 7.75 13.3438 7.75C14.5899 7.75 15.7749 8.17969 16.597 8.93422C16.7307 9.05664 16.9087 9.12498 17.0938 9.125H18.375C18.8208 9.12513 19.2556 9.25742 19.6195 9.50366C19.9835 9.7499 20.2587 10.098 20.4073 10.5H9.12109ZM24.125 20.125C24.125 20.3073 24.0493 20.4822 23.9145 20.6111C23.7797 20.7401 23.5969 20.8125 23.4062 20.8125H21.9688V13.9375H23.4062C23.5969 13.9375 23.7797 14.0099 23.9145 14.1389C24.0493 14.2678 24.125 14.4427 24.125 14.625V20.125Z" fill="white"/>
</g>
<defs>
<clipPath id="clip0_8999_2585">
<rect width="23" height="22" fill="white" transform="translate(4 5)"/>
</clipPath>
</defs>
</svg>
