<svg width="24" height="24" viewBox="0 0 24 24" fill="none" xmlns="http://www.w3.org/2000/svg">
<g id="Frame 289779">
<path id="Vector" d="M12.9677 11.0323V2.96774C12.9677 2.71108 12.8658 2.46493 12.6843 2.28344C12.5028 2.10196 12.2567 2 12 2C11.7433 2 11.4972 2.10196 11.3157 2.28344C11.1342 2.46493 11.0323 2.71108 11.0323 2.96774V11.0323H2.96774C2.71108 11.0323 2.46493 11.1342 2.28344 11.3157C2.10196 11.4972 2 11.7433 2 12C2 12.2567 2.10196 12.5028 2.28344 12.6843C2.46493 12.8658 2.71108 12.9677 2.96774 12.9677H11.0323V21.0323C11.0356 21.2879 11.1386 21.5321 11.3194 21.7129C11.5002 21.8936 11.7444 21.9967 12 22C12.2567 22 12.5028 21.898 12.6843 21.7166C12.8658 21.5351 12.9677 21.2889 12.9677 21.0323V12.9677H21.0323C21.2889 12.9677 21.5351 12.8658 21.7166 12.6843C21.898 12.5028 22 12.2567 22 12C21.9967 11.7444 21.8936 11.5002 21.7129 11.3194C21.5321 11.1386 21.2879 11.0356 21.0323 11.0323H12.9677Z" fill="#FF531A"/>
</g>
</svg>
