<svg width="20" height="20" viewBox="0 0 20 20" fill="none" xmlns="http://www.w3.org/2000/svg">
<path d="M10 14.5833C11.0417 14.5833 11.9272 14.2186 12.6567 13.4892C13.3861 12.7597 13.7506 11.8744 13.75 10.8333C13.75 9.79167 13.3853 8.90611 12.6558 8.17667C11.9264 7.44722 11.0411 7.08278 10 7.08333C8.95833 7.08333 8.07278 7.44806 7.34333 8.1775C6.61389 8.90694 6.24944 9.79222 6.25 10.8333C6.25 11.875 6.61472 12.7606 7.34417 13.49C8.07361 14.2194 8.95889 14.5839 10 14.5833ZM3.33333 17.5C2.875 17.5 2.4825 17.3367 2.15583 17.01C1.82917 16.6833 1.66611 16.2911 1.66667 15.8333V5.83333C1.66667 5.375 1.83 4.9825 2.15667 4.65583C2.48333 4.32917 2.87556 4.16611 3.33333 4.16667H5.95833L7.5 2.5H12.5L14.0417 4.16667H16.6667C17.125 4.16667 17.5175 4.33 17.8442 4.65667C18.1708 4.98333 18.3339 5.37556 18.3333 5.83333V15.8333C18.3333 16.2917 18.17 16.6842 17.8433 17.0108C17.5167 17.3375 17.1244 17.5006 16.6667 17.5H3.33333Z" fill="#7D909C"/>
</svg>
