<svg width="30" height="40" viewBox="0 0 30 40" fill="none" xmlns="http://www.w3.org/2000/svg">
<ellipse cx="15" cy="37" rx="13" ry="3" fill="#D4DADE"/>
<path d="M30 15.2497C30 23.6711 21.9479 31.4796 17.6417 35.884C16.1824 37.3742 13.8143 37.3742 12.355 35.884C8.05212 31.4796 0 24.5 0 15.2497C0 6.82844 6.71661 0 15 0C23.2834 0 30 6.82844 30 15.2497Z" fill="#FF531A"/>
<g clip-path="url(#clip0_8636_2982)">
<path d="M24 13.7501H23.2153C23.0269 11.7016 22.0799 9.79733 20.56 8.41089C19.0402 7.02445 17.0572 6.25586 15 6.25586C12.9428 6.25586 10.9598 7.02445 9.43998 8.41089C7.92015 9.79733 6.97314 11.7016 6.78469 13.7501H6C5.80109 13.7501 5.61032 13.8291 5.46967 13.9698C5.32902 14.1104 5.25 14.3012 5.25 14.5001C5.2533 16.2837 5.74415 18.0325 6.66948 19.5573C7.59481 21.0821 8.9194 22.3249 10.5 23.1514V23.5001C10.5 23.8979 10.658 24.2795 10.9393 24.5608C11.2206 24.8421 11.6022 25.0001 12 25.0001H18C18.3978 25.0001 18.7794 24.8421 19.0607 24.5608C19.342 24.2795 19.5 23.8979 19.5 23.5001V23.1514C21.0806 22.3249 22.4052 21.0821 23.3305 19.5573C24.2558 18.0325 24.7467 16.2837 24.75 14.5001C24.75 14.3012 24.671 14.1104 24.5303 13.9698C24.3897 13.8291 24.1989 13.7501 24 13.7501ZM19.2638 9.27168C19.4356 9.41231 19.6003 9.56075 19.7578 9.717C17.7613 10.4193 16.1114 11.8627 15.15 13.7482H12.3844C12.8531 12.4343 13.7161 11.2971 14.8555 10.492C15.9948 9.68689 17.3549 9.25319 18.75 9.25012C18.9216 9.25012 19.0931 9.25856 19.2638 9.27168ZM16.8862 13.7501C17.7955 12.386 19.1712 11.4003 20.7553 10.9779C21.2733 11.8204 21.5982 12.7671 21.7069 13.7501H16.8862ZM15 7.75012C15.6018 7.75052 16.2009 7.83155 16.7812 7.99106C15.3679 8.34166 14.072 9.05863 13.024 10.0697C11.9761 11.0808 11.2132 12.3502 10.8122 13.7501H8.29312C8.47917 12.1009 9.26562 10.5779 10.5025 9.47132C11.7395 8.36476 13.3403 7.75209 15 7.75012Z" fill="white"/>
</g>
<defs>
<clipPath id="clip0_8636_2982">
<rect width="24" height="24" fill="white" transform="translate(3 4)"/>
</clipPath>
</defs>
</svg>
