<svg width="30" height="40" viewBox="0 0 30 40" fill="none" xmlns="http://www.w3.org/2000/svg">
<ellipse cx="15" cy="37.0002" rx="13" ry="3" fill="#D4DADE"/>
<path d="M30 15.2497C30 23.6711 21.9479 31.4796 17.6417 35.884C16.1824 37.3742 13.8143 37.3742 12.355 35.884C8.05212 31.4796 0 24.5 0 15.2497C0 6.82844 6.71661 0 15 0C23.2834 0 30 6.82844 30 15.2497Z" fill="#FF531A"/>
<g clip-path="url(#clip0_8999_2574)">
<path d="M22.0473 11.2338H7.65423C7.48072 11.2338 7.31431 11.3028 7.19162 11.4255C7.06893 11.5482 7 11.7146 7 11.8881V15.8135C7.00196 16.9273 7.24015 18.028 7.69886 19.043C8.15758 20.058 8.82637 20.9641 9.66108 21.7015H7.65423C7.48072 21.7015 7.31431 21.7705 7.19162 21.8932C7.06893 22.0159 7 22.1823 7 22.3558C7 22.5293 7.06893 22.6957 7.19162 22.8184C7.31431 22.9411 7.48072 23.01 7.65423 23.01H22.0473C22.2208 23.01 22.3872 22.9411 22.5099 22.8184C22.6326 22.6957 22.7015 22.5293 22.7015 22.3558C22.7015 22.1823 22.6326 22.0159 22.5099 21.8932C22.3872 21.7705 22.2208 21.7015 22.0473 21.7015H20.0405C21.0424 20.8135 21.8022 19.6853 22.2485 18.423C23.0794 18.3718 23.8596 18.0057 24.43 17.3993C25.0004 16.7929 25.3182 15.9918 25.3185 15.1592V14.505C25.3185 13.6374 24.9738 12.8054 24.3604 12.1919C23.7469 11.5785 22.9149 11.2338 22.0473 11.2338ZM24.01 15.1592C24.0097 15.5825 23.8726 15.9943 23.6191 16.3333C23.3656 16.6723 23.0093 16.9202 22.6034 17.0401C22.6682 16.6345 22.701 16.2243 22.7015 15.8135V12.6552C23.0841 12.7904 23.4153 13.0409 23.6497 13.3722C23.884 13.7035 24.0099 14.0992 24.01 14.505V15.1592ZM14.1965 9.27115V6.65423C14.1965 6.48072 14.2655 6.31431 14.3882 6.19162C14.5108 6.06893 14.6773 6 14.8508 6C15.0243 6 15.1907 6.06893 15.3134 6.19162C15.4361 6.31431 15.505 6.48072 15.505 6.65423V9.27115C15.505 9.44467 15.4361 9.61107 15.3134 9.73376C15.1907 9.85646 15.0243 9.92538 14.8508 9.92538C14.6773 9.92538 14.5108 9.85646 14.3882 9.73376C14.2655 9.61107 14.1965 9.44467 14.1965 9.27115ZM16.8135 9.27115V6.65423C16.8135 6.48072 16.8824 6.31431 17.0051 6.19162C17.1278 6.06893 17.2942 6 17.4677 6C17.6412 6 17.8076 6.06893 17.9303 6.19162C18.053 6.31431 18.1219 6.48072 18.1219 6.65423V9.27115C18.1219 9.44467 18.053 9.61107 17.9303 9.73376C17.8076 9.85646 17.6412 9.92538 17.4677 9.92538C17.2942 9.92538 17.1278 9.85646 17.0051 9.73376C16.8824 9.61107 16.8135 9.44467 16.8135 9.27115ZM11.5796 9.27115V6.65423C11.5796 6.48072 11.6485 6.31431 11.7712 6.19162C11.8939 6.06893 12.0603 6 12.2338 6C12.4074 6 12.5738 6.06893 12.6965 6.19162C12.8191 6.31431 12.8881 6.48072 12.8881 6.65423V9.27115C12.8881 9.44467 12.8191 9.61107 12.6965 9.73376C12.5738 9.85646 12.4074 9.92538 12.2338 9.92538C12.0603 9.92538 11.8939 9.85646 11.7712 9.73376C11.6485 9.61107 11.5796 9.44467 11.5796 9.27115Z" fill="white"/>
</g>
<defs>
<clipPath id="clip0_8999_2574">
<rect width="24" height="24" fill="white" transform="translate(3 3)"/>
</clipPath>
</defs>
</svg>
