<svg width="30" height="40" viewBox="0 0 30 40" fill="none" xmlns="http://www.w3.org/2000/svg">
<ellipse cx="15" cy="37.0002" rx="13" ry="3" fill="#D4DADE"/>
<path d="M30 15.2497C30 23.6711 21.9479 31.4796 17.6417 35.884C16.1824 37.3742 13.8143 37.3742 12.355 35.884C8.05212 31.4796 0 24.5 0 15.2497C0 6.82844 6.71661 0 15 0C23.2834 0 30 6.82844 30 15.2497Z" fill="#FF531A"/>
<mask id="mask0_8999_2556" style="mask-type:alpha" maskUnits="userSpaceOnUse" x="4" y="4" width="22" height="22">
<rect x="4" y="4" width="22" height="22" fill="#D9D9D9"/>
</mask>
<g mask="url(#mask0_8999_2556)">
<path d="M7.66671 23.25L5.83337 21.4167H24.1667L22.3334 23.25H7.66671ZM6.75004 20.5C6.84171 20.225 6.96393 19.9653 7.11671 19.7208C7.26948 19.4764 7.45282 19.2472 7.66671 19.0333V12.25H6.75004V10.875H7.66671V10.1875H6.75004V8.8125H7.66671V8.125H6.75004V6.75H12.9375C13.5181 6.75 14.007 6.94861 14.4042 7.34583C14.8014 7.74306 15 8.23194 15 8.8125H23.25V10.1875H15C15 10.7681 14.8014 11.2569 14.4042 11.6542C14.007 12.0514 13.5181 12.25 12.9375 12.25H11.3334V17.8417C11.5625 17.8722 11.7802 17.9181 11.9865 17.9792C12.1927 18.0403 12.3875 18.1319 12.5709 18.2542C12.9375 17.3069 13.5448 16.5278 14.3927 15.9167C15.2407 15.3056 16.207 15 17.2917 15C18.7737 15 20.0112 15.5424 21.0042 16.6271C21.9973 17.7118 22.425 19.0028 22.2875 20.5H6.75004ZM11.3334 8.8125H13.1667V8.125H11.3334V8.8125ZM11.3334 10.875H13.1667V10.1875H11.3334V10.875ZM9.04171 8.8125H9.95837V8.125H9.04171V8.8125ZM9.04171 10.875H9.95837V10.1875H9.04171V10.875ZM9.04171 18.0708C9.17921 17.9944 9.32435 17.9372 9.47712 17.899C9.6299 17.8608 9.79032 17.8264 9.95837 17.7958V12.25H9.04171V18.0708Z" fill="white"/>
</g>
</svg>
