<svg width="25" height="26" viewBox="0 0 25 26" fill="none" xmlns="http://www.w3.org/2000/svg">
<path d="M21.3125 9.3125H19.4375V7.4375C19.4375 6.1943 18.9436 5.00201 18.0646 4.12294C17.1855 3.24386 15.9932 2.75 14.75 2.75H13.4398C12.0441 1.55469 10.1586 0.875 8.1875 0.875C4.05195 0.875 0.6875 3.81875 0.6875 7.4375V23.375C0.6875 23.8723 0.885044 24.3492 1.23667 24.7008C1.58831 25.0525 2.06522 25.25 2.5625 25.25H17.5625C18.0598 25.25 18.5367 25.0525 18.8883 24.7008C19.24 24.3492 19.4375 23.8723 19.4375 23.375V22.4375H21.3125C22.0584 22.4375 22.7738 22.1412 23.3012 21.6137C23.8287 21.0863 24.125 20.3709 24.125 19.625V12.125C24.125 11.3791 23.8287 10.6637 23.3012 10.1363C22.7738 9.60882 22.0584 9.3125 21.3125 9.3125ZM8.1875 20.5625C8.1875 20.8111 8.08873 21.0496 7.91291 21.2254C7.7371 21.4012 7.49864 21.5 7.25 21.5C7.00136 21.5 6.7629 21.4012 6.58709 21.2254C6.41127 21.0496 6.3125 20.8111 6.3125 20.5625V11.1875C6.3125 10.9389 6.41127 10.7004 6.58709 10.5246C6.7629 10.3488 7.00136 10.25 7.25 10.25C7.49864 10.25 7.7371 10.3488 7.91291 10.5246C8.08873 10.7004 8.1875 10.9389 8.1875 11.1875V20.5625ZM13.8125 20.5625C13.8125 20.8111 13.7137 21.0496 13.5379 21.2254C13.3621 21.4012 13.1236 21.5 12.875 21.5C12.6264 21.5 12.3879 21.4012 12.2121 21.2254C12.0363 21.0496 11.9375 20.8111 11.9375 20.5625V11.1875C11.9375 10.9389 12.0363 10.7004 12.2121 10.5246C12.3879 10.3488 12.6264 10.25 12.875 10.25C13.1236 10.25 13.3621 10.3488 13.5379 10.5246C13.7137 10.7004 13.8125 10.9389 13.8125 11.1875V20.5625ZM2.67969 6.5C3.20234 4.3625 5.47461 2.75 8.1875 2.75C9.81289 2.75 11.3586 3.33594 12.4309 4.36484C12.6053 4.53178 12.8374 4.62497 13.0789 4.625H14.75C15.3315 4.62518 15.8986 4.80557 16.3733 5.14135C16.848 5.47713 17.207 5.95179 17.4008 6.5H2.67969ZM22.25 19.625C22.25 19.8736 22.1512 20.1121 21.9754 20.2879C21.7996 20.4637 21.5611 20.5625 21.3125 20.5625H19.4375V11.1875H21.3125C21.5611 11.1875 21.7996 11.2863 21.9754 11.4621C22.1512 11.6379 22.25 11.8764 22.25 12.125V19.625Z" fill="white"/>
</svg>
