<svg width="16" height="13" viewBox="0 0 16 13" fill="none" xmlns="http://www.w3.org/2000/svg">
<path d="M5.30942 9.33495L13.2466 0.73437C13.4933 0.46712 13.8072 0.333496 14.1883 0.333496C14.5695 0.333496 14.8834 0.46712 15.13 0.73437C15.3767 1.00162 15.5 1.34176 15.5 1.75478C15.5 2.1678 15.3767 2.50794 15.13 2.77519L6.25112 12.3962C5.98206 12.6877 5.66816 12.8335 5.30942 12.8335C4.95067 12.8335 4.63677 12.6877 4.36771 12.3962L0.869955 8.60609C0.623318 8.33884 0.5 7.9987 0.5 7.58568C0.5 7.17266 0.623318 6.83252 0.869955 6.56527C1.11659 6.29802 1.43049 6.1644 1.81166 6.1644C2.19282 6.1644 2.50673 6.29802 2.75336 6.56527L5.30942 9.33495Z" fill="#3CC449"/>
</svg>
