<svg width="29" height="29" viewBox="0 0 29 29" fill="none" xmlns="http://www.w3.org/2000/svg">
<g id="mingcute:home-1-fill" clip-path="url(#clip0_7609_12073)">
<g id="Group">
<path id="Vector (Stroke)" fill-rule="evenodd" clip-rule="evenodd" d="M14.5208 7.67924L8.10417 12.2992V20.333H20.9375V12.2992L14.5208 7.67924ZM14.5208 4.58301C14.0721 4.58301 13.6354 4.72274 13.2764 4.98123L6.01713 10.2079C5.75954 10.3934 5.55046 10.6339 5.40647 10.9103C5.26247 11.1868 5.1875 11.4917 5.1875 11.8008V21.2586C5.1875 21.7866 5.40602 22.2931 5.79498 22.6665C6.18395 23.0399 6.7115 23.2497 7.26157 23.2497H21.7801C22.3302 23.2497 22.8577 23.0399 23.2467 22.6665C23.6356 22.2931 23.8542 21.7866 23.8542 21.2586V11.8008C23.8542 11.4917 23.7792 11.1868 23.6352 10.9103C23.4912 10.6339 23.2821 10.3934 23.0245 10.2079L15.7653 4.98123C15.4063 4.72274 14.9696 4.58301 14.5208 4.58301Z" fill="#374248"/>
</g>
</g>
<defs>
<clipPath id="clip0_7609_12073">
<rect width="28" height="28" fill="white" transform="translate(0.375 0.5)"/>
</clipPath>
</defs>
</svg>
