<svg width="16" height="17" viewBox="0 0 16 17" fill="none" xmlns="http://www.w3.org/2000/svg">
<g id="ic:round-person-pin-circle">
<g id="Group 2646">
<path id="Vector (Stroke)" fill-rule="evenodd" clip-rule="evenodd" d="M8.00353 14.5051C6.35177 13.0336 5.14464 11.6929 4.34487 10.4852C3.48684 9.18946 3.14723 8.12279 3.14723 7.2562C3.14723 4.24263 5.43221 2.3235 8.00004 2.3235C10.5679 2.3235 12.8529 4.24263 12.8529 7.2562C12.8529 8.1229 12.5132 9.18972 11.6558 10.4857C10.8569 11.6934 9.65162 13.0339 8.00353 14.5051ZM8.00004 1C4.75748 1 1.82373 3.4567 1.82373 7.2562C1.82373 9.68238 3.71523 12.5358 7.4905 15.8165C7.76843 16.0606 8.23937 16.0606 8.51731 15.8165C12.2849 12.5358 14.1764 9.68238 14.1764 7.2562C14.1764 3.4567 11.2426 1 8.00004 1Z" fill="#FF531A"/>
<path id="Ellipse 128" d="M9.76467 7.17677C9.76467 8.15136 8.97461 8.94143 8.00001 8.94143C7.02542 8.94143 6.23535 8.15136 6.23535 7.17677C6.23535 6.20217 7.02542 5.41211 8.00001 5.41211C8.97461 5.41211 9.76467 6.20217 9.76467 7.17677Z" fill="#FF531A"/>
</g>
</g>
</svg>
