<svg width="29" height="29" viewBox="0 0 29 29" fill="none" xmlns="http://www.w3.org/2000/svg">
<g id="Users" clip-path="url(#clip0_7609_12086)">
<g id="Group 2643">
<path id="Ellipse 127 (Stroke)" fill-rule="evenodd" clip-rule="evenodd" d="M9.77079 19.7503C12.3481 19.7503 14.4375 17.661 14.4375 15.0837C14.4375 12.5063 12.3481 10.417 9.77079 10.417C7.19346 10.417 5.10413 12.5063 5.10413 15.0837C5.10413 17.661 7.19346 19.7503 9.77079 19.7503ZM9.77079 23.2503C14.2811 23.2503 17.9375 19.594 17.9375 15.0837C17.9375 10.5733 14.2811 6.91699 9.77079 6.91699C5.26047 6.91699 1.60413 10.5733 1.60413 15.0837C1.60413 19.594 5.26047 23.2503 9.77079 23.2503Z" fill="#D4DADE"/>
<path id="Rectangle 1062" d="M18.7553 6.87737C19.5176 6.11505 20.7536 6.11505 21.5159 6.87737L28.2239 13.5853C28.9862 14.3476 28.9862 15.5836 28.2239 16.3459L21.5159 23.0538C20.7536 23.8162 19.5176 23.8162 18.7553 23.0538L12.0474 16.3459C11.2851 15.5836 11.2851 14.3476 12.0474 13.5853L18.7553 6.87737Z" fill="#D4DADE"/>
</g>
</g>
<defs>
<clipPath id="clip0_7609_12086">
<rect width="28" height="28" fill="white" transform="translate(0.875 0.5)"/>
</clipPath>
</defs>
</svg>
