<svg width="32" height="32" viewBox="0 0 32 32" fill="none" xmlns="http://www.w3.org/2000/svg">
<g id="ImagesSquare" clip-path="url(#clip0_8556_12032)">
<path id="Vector" d="M26 4H10C9.46957 4 8.96086 4.21071 8.58579 4.58579C8.21071 4.96086 8 5.46957 8 6V8H6C5.46957 8 4.96086 8.21071 4.58579 8.58579C4.21071 8.96086 4 9.46957 4 10V26C4 26.5304 4.21071 27.0391 4.58579 27.4142C4.96086 27.7893 5.46957 28 6 28H22C22.5304 28 23.0391 27.7893 23.4142 27.4142C23.7893 27.0391 24 26.5304 24 26V24H26C26.5304 24 27.0391 23.7893 27.4142 23.4142C27.7893 23.0391 28 22.5304 28 22V6C28 5.46957 27.7893 4.96086 27.4142 4.58579C27.0391 4.21071 26.5304 4 26 4ZM10 6H26V14.6725L23.9125 12.585C23.5375 12.2102 23.029 11.9997 22.4988 11.9997C21.9685 11.9997 21.46 12.2102 21.085 12.585L11.6713 22H10V6ZM22 26H6V10H8V22C8 22.5304 8.21071 23.0391 8.58579 23.4142C8.96086 23.7893 9.46957 24 10 24H22V26ZM13 11C13 10.6044 13.1173 10.2178 13.3371 9.88886C13.5568 9.55996 13.8692 9.30362 14.2346 9.15224C14.6001 9.00087 15.0022 8.96126 15.3902 9.03843C15.7781 9.1156 16.1345 9.30608 16.4142 9.58579C16.6939 9.86549 16.8844 10.2219 16.9616 10.6098C17.0387 10.9978 16.9991 11.3999 16.8478 11.7654C16.6964 12.1308 16.44 12.4432 16.1111 12.6629C15.7822 12.8827 15.3956 13 15 13C14.4696 13 13.9609 12.7893 13.5858 12.4142C13.2107 12.0391 13 11.5304 13 11Z" fill="#FF531A"/>
<g id="Union">
<mask id="path-2-outside-1_8556_12032" maskUnits="userSpaceOnUse" x="19.9961" y="0.253906" width="12" height="12" fill="black">
<rect fill="white" x="19.9961" y="0.253906" width="12" height="12"/>
<path fill-rule="evenodd" clip-rule="evenodd" d="M26.9961 3.25391C26.9961 2.70162 26.5484 2.25391 25.9961 2.25391C25.4438 2.25391 24.9961 2.70162 24.9961 3.25391V5.25391H22.9961C22.4438 5.25391 21.9961 5.70162 21.9961 6.25391C21.9961 6.80619 22.4438 7.25391 22.9961 7.25391H24.9961V9.25391C24.9961 9.80619 25.4438 10.2539 25.9961 10.2539C26.5484 10.2539 26.9961 9.80619 26.9961 9.25391V7.25391H28.9961C29.5484 7.25391 29.9961 6.80619 29.9961 6.25391C29.9961 5.70162 29.5484 5.25391 28.9961 5.25391H26.9961V3.25391Z"/>
</mask>
<path fill-rule="evenodd" clip-rule="evenodd" d="M26.9961 3.25391C26.9961 2.70162 26.5484 2.25391 25.9961 2.25391C25.4438 2.25391 24.9961 2.70162 24.9961 3.25391V5.25391H22.9961C22.4438 5.25391 21.9961 5.70162 21.9961 6.25391C21.9961 6.80619 22.4438 7.25391 22.9961 7.25391H24.9961V9.25391C24.9961 9.80619 25.4438 10.2539 25.9961 10.2539C26.5484 10.2539 26.9961 9.80619 26.9961 9.25391V7.25391H28.9961C29.5484 7.25391 29.9961 6.80619 29.9961 6.25391C29.9961 5.70162 29.5484 5.25391 28.9961 5.25391H26.9961V3.25391Z" fill="#FF531A"/>
<path d="M24.9961 5.25391V7.25391C26.1007 7.25391 26.9961 6.35848 26.9961 5.25391H24.9961ZM24.9961 7.25391H26.9961C26.9961 6.14934 26.1007 5.25391 24.9961 5.25391V7.25391ZM26.9961 7.25391V5.25391C25.8915 5.25391 24.9961 6.14934 24.9961 7.25391H26.9961ZM26.9961 5.25391H24.9961C24.9961 6.35848 25.8915 7.25391 26.9961 7.25391V5.25391ZM25.9961 4.25391C25.4438 4.25391 24.9961 3.80619 24.9961 3.25391H28.9961C28.9961 1.59705 27.6529 0.253906 25.9961 0.253906V4.25391ZM26.9961 3.25391C26.9961 3.80619 26.5484 4.25391 25.9961 4.25391V0.253906C24.3392 0.253906 22.9961 1.59705 22.9961 3.25391H26.9961ZM26.9961 5.25391V3.25391H22.9961V5.25391H26.9961ZM22.9961 7.25391H24.9961V3.25391H22.9961V7.25391ZM23.9961 6.25391C23.9961 6.80619 23.5484 7.25391 22.9961 7.25391V3.25391C21.3392 3.25391 19.9961 4.59705 19.9961 6.25391H23.9961ZM22.9961 5.25391C23.5484 5.25391 23.9961 5.70162 23.9961 6.25391H19.9961C19.9961 7.91076 21.3392 9.25391 22.9961 9.25391V5.25391ZM24.9961 5.25391H22.9961V9.25391H24.9961V5.25391ZM26.9961 9.25391V7.25391H22.9961V9.25391H26.9961ZM25.9961 8.25391C26.5484 8.25391 26.9961 8.70162 26.9961 9.25391H22.9961C22.9961 10.9108 24.3392 12.2539 25.9961 12.2539V8.25391ZM24.9961 9.25391C24.9961 8.70162 25.4438 8.25391 25.9961 8.25391V12.2539C27.6529 12.2539 28.9961 10.9108 28.9961 9.25391H24.9961ZM24.9961 7.25391V9.25391H28.9961V7.25391H24.9961ZM28.9961 5.25391H26.9961V9.25391H28.9961V5.25391ZM27.9961 6.25391C27.9961 5.70162 28.4438 5.25391 28.9961 5.25391V9.25391C30.6529 9.25391 31.9961 7.91076 31.9961 6.25391H27.9961ZM28.9961 7.25391C28.4438 7.25391 27.9961 6.80619 27.9961 6.25391H31.9961C31.9961 4.59705 30.6529 3.25391 28.9961 3.25391V7.25391ZM26.9961 7.25391H28.9961V3.25391H26.9961V7.25391ZM24.9961 3.25391V5.25391H28.9961V3.25391H24.9961Z" fill="white" mask="url(#path-2-outside-1_8556_12032)"/>
</g>
</g>
<defs>
<clipPath id="clip0_8556_12032">
<rect width="32" height="32" fill="white"/>
</clipPath>
</defs>
</svg>
