<svg width="24" height="24" viewBox="0 0 24 24" fill="none" xmlns="http://www.w3.org/2000/svg">
<g clip-path="url(#clip0_9595_13018)">
<path d="M19.5 3H7.5C7.10218 3 6.72064 3.15804 6.43934 3.43934C6.15804 3.72064 6 4.10218 6 4.5V6H4.5C4.10218 6 3.72064 6.15804 3.43934 6.43934C3.15804 6.72064 3 7.10218 3 7.5V19.5C3 19.8978 3.15804 20.2794 3.43934 20.5607C3.72064 20.842 4.10218 21 4.5 21H16.5C16.8978 21 17.2794 20.842 17.5607 20.5607C17.842 20.2794 18 19.8978 18 19.5V18H19.5C19.8978 18 20.2794 17.842 20.5607 17.5607C20.842 17.2794 21 16.8978 21 16.5V4.5C21 4.10218 20.842 3.72064 20.5607 3.43934C20.2794 3.15804 19.8978 3 19.5 3ZM7.5 4.5H19.5V11.0044L17.9344 9.43875C17.6531 9.15766 17.2717 8.99976 16.8741 8.99976C16.4764 8.99976 16.095 9.15766 15.8137 9.43875L8.75344 16.5H7.5V4.5ZM16.5 19.5H4.5V7.5H6V16.5C6 16.8978 6.15804 17.2794 6.43934 17.5607C6.72064 17.842 7.10218 18 7.5 18H16.5V19.5ZM9.75 8.25C9.75 7.95333 9.83797 7.66332 10.0028 7.41665C10.1676 7.16997 10.4019 6.97771 10.676 6.86418C10.9501 6.75065 11.2517 6.72094 11.5426 6.77882C11.8336 6.8367 12.1009 6.97956 12.3107 7.18934C12.5204 7.39912 12.6633 7.66639 12.7212 7.95736C12.7791 8.24834 12.7494 8.54994 12.6358 8.82403C12.5223 9.09811 12.33 9.33238 12.0834 9.4972C11.8367 9.66203 11.5467 9.75 11.25 9.75C10.8522 9.75 10.4706 9.59196 10.1893 9.31066C9.90804 9.02936 9.75 8.64782 9.75 8.25Z" fill="#7D909C"/>
<mask id="path-2-outside-1_9595_13018" maskUnits="userSpaceOnUse" x="14.4971" y="-0.30957" width="10" height="10" fill="black">
<rect fill="white" x="14.4971" y="-0.30957" width="10" height="10"/>
<path fill-rule="evenodd" clip-rule="evenodd" d="M20.2471 2.44043C20.2471 2.02622 19.9113 1.69043 19.4971 1.69043C19.0829 1.69043 18.7471 2.02622 18.7471 2.44043V3.94043H17.2471C16.8329 3.94043 16.4971 4.27622 16.4971 4.69043C16.4971 5.10464 16.8329 5.44043 17.2471 5.44043H18.7471V6.94043C18.7471 7.35464 19.0829 7.69043 19.4971 7.69043C19.9113 7.69043 20.2471 7.35464 20.2471 6.94043V5.44043H21.7471C22.1613 5.44043 22.4971 5.10464 22.4971 4.69043C22.4971 4.27622 22.1613 3.94043 21.7471 3.94043H20.2471V2.44043Z"/>
</mask>
<path fill-rule="evenodd" clip-rule="evenodd" d="M20.2471 2.44043C20.2471 2.02622 19.9113 1.69043 19.4971 1.69043C19.0829 1.69043 18.7471 2.02622 18.7471 2.44043V3.94043H17.2471C16.8329 3.94043 16.4971 4.27622 16.4971 4.69043C16.4971 5.10464 16.8329 5.44043 17.2471 5.44043H18.7471V6.94043C18.7471 7.35464 19.0829 7.69043 19.4971 7.69043C19.9113 7.69043 20.2471 7.35464 20.2471 6.94043V5.44043H21.7471C22.1613 5.44043 22.4971 5.10464 22.4971 4.69043C22.4971 4.27622 22.1613 3.94043 21.7471 3.94043H20.2471V2.44043Z" fill="#7D909C"/>
<path d="M18.7471 3.94043V5.94043C19.8516 5.94043 20.7471 5.045 20.7471 3.94043H18.7471ZM18.7471 5.44043H20.7471C20.7471 4.33586 19.8516 3.44043 18.7471 3.44043V5.44043ZM20.2471 5.44043V3.44043C19.1425 3.44043 18.2471 4.33586 18.2471 5.44043H20.2471ZM20.2471 3.94043H18.2471C18.2471 5.045 19.1425 5.94043 20.2471 5.94043V3.94043ZM19.4971 3.69043C18.8067 3.69043 18.2471 3.13079 18.2471 2.44043H22.2471C22.2471 0.921647 21.0159 -0.30957 19.4971 -0.30957V3.69043ZM20.7471 2.44043C20.7471 3.13079 20.1874 3.69043 19.4971 3.69043V-0.30957C17.9783 -0.30957 16.7471 0.921647 16.7471 2.44043H20.7471ZM20.7471 3.94043V2.44043H16.7471V3.94043H20.7471ZM17.2471 5.94043H18.7471V1.94043H17.2471V5.94043ZM18.4971 4.69043C18.4971 5.38079 17.9374 5.94043 17.2471 5.94043V1.94043C15.7283 1.94043 14.4971 3.17165 14.4971 4.69043H18.4971ZM17.2471 3.44043C17.9374 3.44043 18.4971 4.00007 18.4971 4.69043H14.4971C14.4971 6.20921 15.7283 7.44043 17.2471 7.44043V3.44043ZM18.7471 3.44043H17.2471V7.44043H18.7471V3.44043ZM20.7471 6.94043V5.44043H16.7471V6.94043H20.7471ZM19.4971 5.69043C20.1874 5.69043 20.7471 6.25007 20.7471 6.94043H16.7471C16.7471 8.45921 17.9783 9.69043 19.4971 9.69043V5.69043ZM18.2471 6.94043C18.2471 6.25007 18.8067 5.69043 19.4971 5.69043V9.69043C21.0159 9.69043 22.2471 8.45921 22.2471 6.94043H18.2471ZM18.2471 5.44043V6.94043H22.2471V5.44043H18.2471ZM21.7471 3.44043H20.2471V7.44043H21.7471V3.44043ZM20.4971 4.69043C20.4971 4.00007 21.0567 3.44043 21.7471 3.44043V7.44043C23.2659 7.44043 24.4971 6.20921 24.4971 4.69043H20.4971ZM21.7471 5.94043C21.0567 5.94043 20.4971 5.38079 20.4971 4.69043H24.4971C24.4971 3.17165 23.2659 1.94043 21.7471 1.94043V5.94043ZM20.2471 5.94043H21.7471V1.94043H20.2471V5.94043ZM18.2471 2.44043V3.94043H22.2471V2.44043H18.2471Z" fill="#F6F8F8" mask="url(#path-2-outside-1_9595_13018)"/>
</g>
<defs>
<clipPath id="clip0_9595_13018">
<rect width="24" height="24" fill="white"/>
</clipPath>
</defs>
</svg>
