<svg width="29" height="29" viewBox="0 0 29 29" fill="none" xmlns="http://www.w3.org/2000/svg">
<g id="Frame 289759">
<g id="Group 2644">
<path id="Union" fill-rule="evenodd" clip-rule="evenodd" d="M14.4791 4.58301C8.67999 4.58301 3.97913 9.28388 3.97913 15.083C3.97913 17.6023 4.86632 19.9144 6.34533 21.7238C6.35715 21.7389 6.36938 21.7538 6.38202 21.7684C8.3079 24.0983 11.2201 25.583 14.4791 25.583C17.728 25.583 20.6322 24.1075 22.5582 21.7901C22.5844 21.7613 22.609 21.7314 22.6318 21.7006C24.0995 19.8946 24.9791 17.5916 24.9791 15.083C24.9791 9.28388 20.2783 4.58301 14.4791 4.58301ZM21.4995 19.258C22.2276 18.0363 22.6458 16.6085 22.6458 15.083C22.6458 10.5725 18.9896 6.91634 14.4791 6.91634C9.96866 6.91634 6.31246 10.5725 6.31246 15.083C6.31246 16.6087 6.73082 18.0367 7.45908 19.2585C7.71495 19.0681 8.01727 18.8659 8.36846 18.6652C9.69869 17.9048 11.7007 17.1832 14.4793 17.1832C17.2579 17.1832 19.2601 17.9048 20.5905 18.6651C20.9415 18.8657 21.2437 19.0678 21.4995 19.258ZM8.92905 21.0741C10.3859 22.4243 12.3361 23.2497 14.4791 23.2497C16.6224 23.2497 18.5727 22.4241 20.0296 21.0737C19.8608 20.9522 19.6623 20.8221 19.4327 20.691C18.4392 20.1231 16.834 19.5166 14.4793 19.5166C12.1246 19.5166 10.5197 20.1231 9.52638 20.6909C9.29664 20.8222 9.09799 20.9524 8.92905 21.0741ZM14.4793 8.31657C13.4273 8.31657 12.4183 8.73448 11.6744 9.47838C10.9305 10.2223 10.5126 11.2312 10.5126 12.2832C10.5126 13.3353 10.9305 14.3442 11.6744 15.0881C12.4183 15.832 13.4273 16.2499 14.4793 16.2499C15.5313 16.2499 16.5402 15.832 17.2841 15.0881C18.028 14.3442 18.446 13.3353 18.446 12.2832C18.446 11.2312 18.028 10.2223 17.2841 9.47838C16.5403 8.73448 15.5313 8.31657 14.4793 8.31657ZM13.3243 11.1283C13.6307 10.822 14.0461 10.6499 14.4793 10.6499C14.9125 10.6499 15.3279 10.822 15.6342 11.1283C15.9405 11.4346 16.1126 11.85 16.1126 12.2832C16.1126 12.7164 15.9405 13.1319 15.6342 13.4382C15.3279 13.7445 14.9125 13.9166 14.4793 13.9166C14.0461 13.9166 13.6307 13.7445 13.3243 13.4382C13.018 13.1319 12.846 12.7164 12.846 12.2832C12.846 11.85 13.018 11.4346 13.3243 11.1283Z" fill="#D4DADE"/>
</g>
</g>
</svg>
