<svg width="20" height="20" viewBox="0 0 20 20" fill="none" xmlns="http://www.w3.org/2000/svg">
<g clip-path="url(#clip0_15_7)">
<circle cx="10" cy="10" r="10" fill="black"/>
<g clip-path="url(#clip1_15_7)">
<path d="M14.0445 13.455C14.0833 13.4937 14.114 13.5397 14.1349 13.5902C14.1559 13.6408 14.1666 13.695 14.1666 13.7498C14.1666 13.8045 14.1559 13.8587 14.1349 13.9093C14.114 13.9599 14.0833 14.0058 14.0445 14.0445C14.0058 14.0833 13.9599 14.114 13.9093 14.1349C13.8587 14.1559 13.8045 14.1666 13.7498 14.1666C13.695 14.1666 13.6408 14.1559 13.5902 14.1349C13.5397 14.114 13.4937 14.0833 13.455 14.0445L9.99998 10.589L6.54496 14.0445C6.46678 14.1227 6.36075 14.1666 6.25019 14.1666C6.13963 14.1666 6.03359 14.1227 5.95541 14.0445C5.87723 13.9664 5.83331 13.8603 5.83331 13.7498C5.83331 13.6392 5.87723 13.5332 5.95541 13.455L9.41095 9.99998L5.95541 6.54496C5.87723 6.46678 5.83331 6.36075 5.83331 6.25019C5.83331 6.13963 5.87723 6.03359 5.95541 5.95541C6.03359 5.87723 6.13963 5.83331 6.25019 5.83331C6.36075 5.83331 6.46678 5.87723 6.54496 5.95541L9.99998 9.41095L13.455 5.95541C13.5332 5.87723 13.6392 5.83331 13.7498 5.83331C13.8603 5.83331 13.9664 5.87723 14.0445 5.95541C14.1227 6.03359 14.1666 6.13963 14.1666 6.25019C14.1666 6.36075 14.1227 6.46678 14.0445 6.54496L10.589 9.99998L14.0445 13.455Z" fill="white"/>
</g>
</g>
<defs>
<clipPath id="clip0_15_7">
<rect width="20" height="20" fill="white"/>
</clipPath>
<clipPath id="clip1_15_7">
<rect width="10" height="10" fill="white" transform="translate(5 5)"/>
</clipPath>
</defs>
</svg>
