<svg width="30" height="30" viewBox="0 0 30 30" fill="none" xmlns="http://www.w3.org/2000/svg">
<g clip-path="url(#clip0_8552_5747)">
<path d="M22.7321 8.80357H3.67857C3.44887 8.80357 3.22859 8.89482 3.06617 9.05724C2.90375 9.21966 2.8125 9.43995 2.8125 9.66964V14.8661C2.81509 16.3405 3.13041 17.7977 3.73766 19.1413C4.3449 20.4849 5.23025 21.6845 6.33525 22.6607H3.67857C3.44887 22.6607 3.22859 22.752 3.06617 22.9144C2.90375 23.0768 2.8125 23.2971 2.8125 23.5268C2.8125 23.7565 2.90375 23.9768 3.06617 24.1392C3.22859 24.3016 3.44887 24.3929 3.67857 24.3929H22.7321C22.9618 24.3929 23.1821 24.3016 23.3445 24.1392C23.507 23.9768 23.5982 23.7565 23.5982 23.5268C23.5982 23.2971 23.507 23.0768 23.3445 22.9144C23.1821 22.752 22.9618 22.6607 22.7321 22.6607H20.0755C21.4019 21.4851 22.4077 19.9917 22.9985 18.3206C24.0985 18.2528 25.1313 17.7682 25.8864 16.9654C26.6415 16.1626 27.0621 15.1021 27.0625 14V13.1339C27.0625 11.9854 26.6063 10.884 25.7942 10.0719C24.9821 9.2598 23.8806 8.80357 22.7321 8.80357ZM25.3304 14C25.33 14.5603 25.1485 15.1055 24.8129 15.5542C24.4773 16.003 24.0057 16.3312 23.4683 16.49C23.5541 15.9529 23.5976 15.4099 23.5982 14.8661V10.6851C24.1047 10.8642 24.5431 11.1958 24.8533 11.6343C25.1635 12.0729 25.3302 12.5968 25.3304 13.1339V14ZM12.3393 6.20536V2.74107C12.3393 2.51137 12.4305 2.29109 12.593 2.12867C12.7554 1.96625 12.9757 1.875 13.2054 1.875C13.4351 1.875 13.6553 1.96625 13.8178 2.12867C13.9802 2.29109 14.0714 2.51137 14.0714 2.74107V6.20536C14.0714 6.43505 13.9802 6.65534 13.8178 6.81776C13.6553 6.98018 13.4351 7.07143 13.2054 7.07143C12.9757 7.07143 12.7554 6.98018 12.593 6.81776C12.4305 6.65534 12.3393 6.43505 12.3393 6.20536ZM15.8036 6.20536V2.74107C15.8036 2.51137 15.8948 2.29109 16.0572 2.12867C16.2197 1.96625 16.4399 1.875 16.6696 1.875C16.8993 1.875 17.1196 1.96625 17.282 2.12867C17.4445 2.29109 17.5357 2.51137 17.5357 2.74107V6.20536C17.5357 6.43505 17.4445 6.65534 17.282 6.81776C17.1196 6.98018 16.8993 7.07143 16.6696 7.07143C16.4399 7.07143 16.2197 6.98018 16.0572 6.81776C15.8948 6.65534 15.8036 6.43505 15.8036 6.20536ZM8.875 6.20536V2.74107C8.875 2.51137 8.96625 2.29109 9.12867 2.12867C9.29109 1.96625 9.51137 1.875 9.74107 1.875C9.97077 1.875 10.1911 1.96625 10.3535 2.12867C10.5159 2.29109 10.6071 2.51137 10.6071 2.74107V6.20536C10.6071 6.43505 10.5159 6.65534 10.3535 6.81776C10.1911 6.98018 9.97077 7.07143 9.74107 7.07143C9.51137 7.07143 9.29109 6.98018 9.12867 6.81776C8.96625 6.65534 8.875 6.43505 8.875 6.20536Z" fill="white"/>
</g>
<defs>
<clipPath id="clip0_8552_5747">
<rect width="30" height="30" fill="white"/>
</clipPath>
</defs>
</svg>
