<svg width="20" height="20" viewBox="0 0 20 20" fill="none" xmlns="http://www.w3.org/2000/svg">
<path fill-rule="evenodd" clip-rule="evenodd" d="M12.4415 1.28813C12.5323 1.19683 12.6403 1.12436 12.7593 1.07491C12.8783 1.02546 13.006 1 13.1349 1C13.2638 1 13.3915 1.02546 13.5105 1.07491C13.6295 1.12436 13.7375 1.19683 13.8283 1.28813L18.7111 6.15847C18.8027 6.24903 18.8753 6.35676 18.9249 6.47546C18.9745 6.59416 19 6.72148 19 6.85006C19 6.97865 18.9745 7.10597 18.9249 7.22467C18.8753 7.34337 18.8027 7.4511 18.7111 7.54165L16.2697 9.97683L6.50397 19.7175C6.33181 19.8883 6.10202 19.989 5.85944 20H0.976573C0.717569 20 0.469174 19.8974 0.286031 19.7147C0.102889 19.532 0 19.2843 0 19.0259V14.1556C0.00154297 14.0283 0.0280853 13.9025 0.0781258 13.7854C0.121839 13.6673 0.191977 13.5607 0.283206 13.4737M0.283206 13.4737L10.0489 3.73304L12.4904 1.29787M1.90432 14.555V18.0519H5.41021L14.1994 9.28524L10.6935 5.78833L1.90432 14.555ZM16.6408 6.85006L15.5763 7.9118L12.0704 4.41489L13.1349 3.35316L16.6408 6.85006Z" fill="#9AA9B2"/>
</svg>
