<svg width="16" height="16" viewBox="0 0 16 16" fill="none" xmlns="http://www.w3.org/2000/svg">
<rect x="8" y="-2.6665" width="15.3333" height="15.3333" rx="7.66667" transform="rotate(45 8 -2.6665)" fill="#374248"/>
<path fill-rule="evenodd" clip-rule="evenodd" d="M4.98852 9.98268C4.65585 10.3154 4.65585 10.8547 4.98852 11.1874C5.32119 11.5201 5.86056 11.5201 6.19322 11.1874L8.00001 9.3806L9.80678 11.1874C10.1395 11.52 10.6788 11.52 11.0115 11.1874C11.3442 10.8547 11.3442 10.3153 11.0115 9.98268L9.20471 8.1759L11.012 6.36858C11.3447 6.03591 11.3447 5.49655 11.012 5.16388C10.6794 4.83121 10.14 4.83121 9.80733 5.16388L8.00001 6.9712L6.19268 5.16388C5.86001 4.83121 5.32065 4.83121 4.98798 5.16388C4.65531 5.49655 4.65531 6.03591 4.98798 6.36858L6.79531 8.1759L4.98852 9.98268Z" fill="url(#paint0_radial_10057_2782)"/>
<path fill-rule="evenodd" clip-rule="evenodd" d="M4.98852 9.98268C4.65585 10.3154 4.65585 10.8547 4.98852 11.1874C5.32119 11.5201 5.86056 11.5201 6.19322 11.1874L8.00001 9.3806L9.80678 11.1874C10.1395 11.52 10.6788 11.52 11.0115 11.1874C11.3442 10.8547 11.3442 10.3153 11.0115 9.98268L9.20471 8.1759L11.012 6.36858C11.3447 6.03591 11.3447 5.49655 11.012 5.16388C10.6794 4.83121 10.14 4.83121 9.80733 5.16388L8.00001 6.9712L6.19268 5.16388C5.86001 4.83121 5.32065 4.83121 4.98798 5.16388C4.65531 5.49655 4.65531 6.03591 4.98798 6.36858L6.79531 8.1759L4.98852 9.98268Z" fill="url(#paint1_linear_10057_2782)"/>
<path fill-rule="evenodd" clip-rule="evenodd" d="M4.98852 9.98268C4.65585 10.3154 4.65585 10.8547 4.98852 11.1874C5.32119 11.5201 5.86056 11.5201 6.19322 11.1874L8.00001 9.3806L9.80678 11.1874C10.1395 11.52 10.6788 11.52 11.0115 11.1874C11.3442 10.8547 11.3442 10.3153 11.0115 9.98268L9.20471 8.1759L11.012 6.36858C11.3447 6.03591 11.3447 5.49655 11.012 5.16388C10.6794 4.83121 10.14 4.83121 9.80733 5.16388L8.00001 6.9712L6.19268 5.16388C5.86001 4.83121 5.32065 4.83121 4.98798 5.16388C4.65531 5.49655 4.65531 6.03591 4.98798 6.36858L6.79531 8.1759L4.98852 9.98268Z" fill="white"/>
<defs>
<radialGradient id="paint0_radial_10057_2782" cx="0" cy="0" r="1" gradientUnits="userSpaceOnUse" gradientTransform="translate(7.49804 7.33876) rotate(104.744) scale(9.86192)">
<stop stop-color="#20BC2F"/>
<stop offset="1" stop-color="#20BC2F" stop-opacity="0"/>
</radialGradient>
<linearGradient id="paint1_linear_10057_2782" x1="11.0118" y1="5.16361" x2="9.84051" y2="6.33484" gradientUnits="userSpaceOnUse">
<stop stop-color="white"/>
<stop offset="1" stop-color="white" stop-opacity="0"/>
</linearGradient>
</defs>
</svg>
