<svg width="161" height="174" viewBox="0 0 161 174" fill="none" xmlns="http://www.w3.org/2000/svg">
<path d="M74.3176 75.4761C73.6683 74.7805 73.1047 74.1928 72.5657 73.5932C65.1416 65.318 62.0053 55.6276 62.6301 44.702C62.9732 38.6455 64.5045 32.9729 68.4739 28.1517C74.0603 21.3636 83.6774 21.2797 89.4353 27.9238C92.8901 31.9055 94.495 36.6547 95.1443 41.7038C96.3694 51.1303 94.789 60.089 89.5824 68.2203C88.1245 70.499 86.2256 72.5018 84.5227 74.6366C84.3512 74.8524 84.1429 75.0443 83.7876 75.4041C84.4982 75.8478 85.0985 76.3276 85.7723 76.6514C90.9545 79.1099 96.3694 80.669 102.176 80.9689C105.717 81.1488 109.208 81.0888 112.7 80.657C114.329 80.4532 115.53 81.2807 115.91 82.7918C116.265 84.171 115.554 85.5862 114.072 86.0659C113.031 86.4017 111.904 86.5216 110.801 86.6535C101.956 87.7089 93.4904 86.2338 85.3925 82.7198C83.3711 81.8443 81.5089 80.6091 79.5488 79.5777C79.2425 79.4218 78.7035 79.3378 78.4584 79.4937C73.2273 82.9357 67.4815 85.0945 61.2948 86.1978C55.9166 87.1572 50.5261 87.2892 45.1112 86.4137C42.3425 85.9699 41.1296 83.5833 42.6855 81.6045C43.3838 80.717 44.3149 80.5611 45.3807 80.645C47.5614 80.8369 49.7421 81.1128 51.9227 81.1368C59.5674 81.2447 66.8077 79.6256 73.5213 75.9558C73.7418 75.8358 73.9378 75.7039 74.2931 75.4881L74.3176 75.4761ZM90.1091 47.3525C89.8641 45.1937 89.7416 43.011 89.3373 40.8762C88.6023 36.9905 87.3037 33.3566 84.1306 30.6102C81.3742 28.2236 76.9883 28.1397 74.1583 30.4423C71.8306 32.3492 70.3973 34.7958 69.5642 37.5542C66.9425 46.2251 67.7756 54.6562 71.7326 62.7755C73.3253 66.0256 75.5427 68.8799 78.2992 71.3145C78.8872 71.8422 79.3038 71.8302 79.806 71.2785C80.8229 70.1871 81.9622 69.1917 82.8811 68.0284C87.6957 61.948 89.9376 55.004 90.1091 47.3285V47.3525Z" fill="#D4DADE"/>
<path d="M54 53.5C54 57.6421 51.5376 61 48.5 61C45.4624 61 43 57.6421 43 53.5C43 49.3579 45.4624 46 48.5 46C51.5376 46 54 49.3579 54 53.5Z" fill="#D4DADE"/>
<path fill-rule="evenodd" clip-rule="evenodd" d="M91.7398 79.9266C93.0363 80.2609 93.8163 81.583 93.482 82.8795C91.8385 89.2525 85.2145 93.3596 79.0052 92.8166C76.0187 92.5554 72.7223 91.301 70.3074 89.4684C70.0427 89.2675 69.777 88.9778 69.6497 88.839C69.4611 88.6334 69.2379 88.3776 68.9997 88.0936C68.5244 87.527 67.9505 86.8016 67.4295 86.0672C66.936 85.3717 66.3854 84.5237 66.0607 83.7479C65.9214 83.415 65.6714 82.7542 65.7258 81.997C65.7567 81.5669 65.8968 80.9673 66.3503 80.4212C66.8203 79.8551 67.4264 79.5872 67.9438 79.4871C69.2584 79.2328 70.5302 80.0924 70.7844 81.4069C70.8464 81.7273 70.8422 82.0452 70.7814 82.3464C70.9285 82.5942 71.1298 82.9034 71.384 83.2616C71.8136 83.8671 72.3039 84.4879 72.7146 84.9776C72.9195 85.2218 73.0947 85.4217 73.2236 85.5623C73.2708 85.6138 73.3045 85.6492 73.3262 85.6717C74.9994 86.9105 77.3761 87.8069 79.4276 87.9863C83.5094 88.3433 87.792 85.5266 88.7869 81.6688C89.1212 80.3723 90.4433 79.5923 91.7398 79.9266ZM70.5101 81.8118C70.5109 81.8123 70.5159 81.8251 70.5226 81.849C70.5126 81.8234 70.5092 81.8114 70.5101 81.8118Z" fill="#D4DADE"/>
<path fill-rule="evenodd" clip-rule="evenodd" d="M113.663 48.5685C114.611 47.7935 114.775 46.3742 114.045 45.389C113.305 44.3895 111.916 44.2002 110.952 44.9875L103.337 51.2097C102.804 51.6448 102.5 52.3068 102.5 53.0002C102.5 53.6935 102.804 54.3555 103.337 54.7906L110.952 61.0128C111.916 61.8001 113.305 61.6108 114.045 60.6113C114.775 59.6261 114.611 58.2068 113.663 57.4318L108.239 53.0002L113.663 48.5685ZM107.449 53.0001L107.449 53L113.347 48.1811C113.775 47.8315 113.999 47.3088 114 46.7803C113.999 47.3089 113.775 47.8316 113.347 48.1813L107.449 53.0001ZM114 59.2305C113.999 59.6097 113.882 59.9913 113.643 60.3138C113.07 61.0888 112.006 61.2284 111.269 60.6256L103.653 54.4034C103.241 54.0666 103 53.5488 103 53.0002C103 53.0001 103 53 103 53C103 53.5486 103.241 54.0665 103.653 54.4033L111.269 60.6254C112.006 61.2282 113.07 61.0886 113.643 60.3136C113.882 59.9912 113.999 59.6096 114 59.2305Z" fill="#D4DADE"/>
<path d="M43.0149 139.734V141.359H37.4992V145.453H35.5305V141.359H30.0461V139.734H43.0149ZM30.7024 137.406C33.6555 137.078 35.257 135.688 35.4992 134.422H31.218V132.859H35.5305V131.234H37.4992V132.859H41.8274V134.422H37.5617C37.7805 135.672 39.382 137.078 42.3274 137.406L41.6086 138.969C39.1945 138.695 37.4524 137.703 36.5305 136.414C35.6008 137.719 33.8508 138.695 31.4211 138.969L30.7024 137.406ZM48.7886 134.562C48.7964 136.164 49.8355 137.797 52.148 138.5L51.1949 140.047C49.6011 139.586 48.4761 138.609 47.8355 137.375C47.2027 138.711 46.0777 139.766 44.4292 140.281L43.4605 138.719C45.773 138.023 46.8042 136.297 46.8042 134.562V134.453H43.9449V132.891H46.8042V131.312H48.8199V132.891H51.6636V134.453H48.7886V134.562ZM46.1011 145.188V140.875H48.1011V143.594H55.8824V145.188H46.1011ZM51.1949 136.984V135.375H53.5542V131.234H55.5386V141.781H53.5542V136.984H51.1949ZM67.2892 133.391V134.969H60.4142V133.391H62.883V131.609H64.8517V133.391H67.2892ZM60.7424 138.984C60.7424 137.008 62.0705 135.617 63.883 135.609C65.7033 135.617 67.0002 137.008 67.008 138.984C67.0002 140.969 65.7033 142.375 63.883 142.375C62.0705 142.375 60.7424 140.969 60.7424 138.984ZM62.4924 138.984C62.4924 140.07 63.0549 140.688 63.883 140.688C64.6799 140.688 65.2502 140.07 65.258 138.984C65.2502 137.914 64.6799 137.266 63.883 137.266C63.0549 137.266 62.4924 137.914 62.4924 138.984ZM67.8205 144.828V131.5H69.6799V137H70.8361V131.219H72.7267V145.438H70.8361V138.594H69.6799V144.828H67.8205ZM86.9067 139.062V140.656H81.3755V145.438H79.4067V140.656H73.938V139.062H86.9067ZM74.5786 136.672C77.4536 136.32 79.0474 134.93 79.2583 133.531H75.1099V131.969H85.7505V133.531H81.6021C81.8052 134.93 83.3755 136.32 86.2974 136.672L85.5786 138.234C83.0786 137.898 81.2896 136.836 80.4302 135.375C79.563 136.836 77.7896 137.898 75.313 138.234L74.5786 136.672ZM99.1649 132.453V133.797C99.1571 135.578 99.1571 137.578 98.5867 140.594L96.5867 140.391C97.1336 137.703 97.1571 135.703 97.1649 134.031H88.7899V132.453H99.1649ZM87.4461 143.703V142.078H92.0867V137.188H94.0711V142.078H100.415V143.703H87.4461ZM116.228 131.234V139.109H114.228V131.234H116.228ZM104.275 137.344C106.65 136.625 107.697 134.852 107.697 133.094V131.719H109.775V133.094C109.759 134.781 110.79 136.453 113.119 137.094L112.165 138.672C110.525 138.188 109.392 137.203 108.744 135.93C108.095 137.305 106.931 138.391 105.228 138.906L104.275 137.344ZM106.415 145.281V143.688H108.259V141.328H106.54V139.75H116.306V141.328H114.603V143.688H116.431V145.281H106.415ZM110.228 143.688H112.634V141.328H110.228V143.688ZM130.799 138.484V140.078H117.83V138.484H130.799ZM119.127 134.562C119.127 132.75 121.181 131.641 124.314 131.656C127.424 131.641 129.478 132.75 129.486 134.562C129.478 136.383 127.424 137.5 124.314 137.5C121.181 137.5 119.127 136.383 119.127 134.562ZM119.392 145.188V141.031H121.392V143.594H129.33V145.188H119.392ZM121.205 134.562C121.189 135.445 122.338 135.891 124.314 135.891C126.275 135.891 127.424 135.445 127.424 134.562C127.424 133.703 126.275 133.234 124.314 133.219C122.338 133.234 121.189 133.703 121.205 134.562ZM23.1161 156.203V162.766H16.3505V156.203H23.1161ZM17.163 167.812C20.1708 167.414 21.6552 165.875 21.663 164.297V163.938H23.6317V164.297C23.6317 165.875 25.1239 167.414 28.163 167.812L27.3817 169.375C25.1474 169.039 23.5224 168.07 22.663 166.734C21.7958 168.07 20.1708 169.039 17.9286 169.375L17.163 167.812ZM18.3192 161.188H21.1474V157.781H18.3192V161.188ZM25.2099 164.609V155.219H27.2099V158.766H29.1317V160.422H27.2099V164.609H25.2099ZM37.843 156V157.594H34.9914C35.0852 159.102 36.1711 160.594 38.3899 161.203L37.3899 162.75C35.7649 162.281 34.632 161.305 33.9836 160.07C33.343 161.414 32.1711 162.484 30.4836 163L29.4836 161.438C31.7492 160.789 32.8508 159.203 32.9445 157.594H30.0305V156H37.843ZM31.8274 169.281V163.531H33.7961V164.859H39.3586V163.531H41.343V169.281H31.8274ZM33.7961 167.688H39.3586V166.406H33.7961V167.688ZM39.343 162.938V155.219H41.343V162.938H39.343ZM49.4292 155.422C52.7027 155.422 54.5933 156.281 54.6011 157.844C54.5933 159.43 52.7027 160.281 49.4292 160.281C46.148 160.281 44.2417 159.43 44.2417 157.844C44.2417 156.281 46.148 155.422 49.4292 155.422ZM42.9449 162.531V160.953H55.9136V162.531H42.9449ZM44.4449 164.812V163.359H54.3355V166.984H46.4136V167.844H54.7105V169.344H44.4605V165.594H52.3667V164.812H44.4449ZM46.3355 157.844C46.3277 158.539 47.3433 158.812 49.4292 158.812C51.5308 158.812 52.5386 158.539 52.5386 157.844C52.5386 157.211 51.5308 156.875 49.4292 156.875C47.3433 156.875 46.3277 157.211 46.3355 157.844ZM67.1955 156.047C67.1955 159.766 64.8439 162.344 60.6799 163.5L59.8986 161.953C62.9689 161.117 64.7346 159.555 65.0627 157.641H60.6642V156.047H67.1955ZM62.383 169.266V163.75H71.8049V169.266H62.383ZM64.3361 167.703H69.8361V165.312H64.3361V167.703ZM67.2892 160.234V158.609H69.8205V155.234H71.8049V163.188H69.8205V160.234H67.2892ZM77.8755 157.688C77.8755 159.273 78.6567 160.812 80.5474 161.562L79.4692 163.094C78.2661 162.609 77.4302 161.742 76.9224 160.672C76.4067 161.891 75.5083 162.914 74.188 163.469L73.1255 161.922C75.1333 161.062 75.938 159.297 75.938 157.688V156.047H77.8755V157.688ZM75.7192 166.062V164.469H85.5474V169.438H83.563V166.062H75.7192ZM80.6099 163.766V155.453H82.4692V158.688H83.6567V155.234H85.5474V163.844H83.6567V160.312H82.4692V163.766H80.6099ZM93.6961 157.391V158.969H86.8211V157.391H89.2899V155.609H91.2586V157.391H93.6961ZM87.1492 162.984C87.1492 161.008 88.4774 159.617 90.2899 159.609C92.1102 159.617 93.4071 161.008 93.4149 162.984C93.4071 164.969 92.1102 166.375 90.2899 166.375C88.4774 166.375 87.1492 164.969 87.1492 162.984ZM88.8992 162.984C88.8992 164.07 89.4617 164.688 90.2899 164.688C91.0867 164.688 91.6571 164.07 91.6649 162.984C91.6571 161.914 91.0867 161.266 90.2899 161.266C89.4617 161.266 88.8992 161.914 88.8992 162.984ZM94.2274 168.828V155.5H96.0867V161H97.243V155.219H99.1336V169.438H97.243V162.594H96.0867V168.828H94.2274ZM113.314 163.062V164.656H107.782V169.438H105.814V164.656H100.345V163.062H113.314ZM100.985 160.672C103.86 160.32 105.454 158.93 105.665 157.531H101.517V155.969H112.157V157.531H108.009C108.212 158.93 109.782 160.32 112.704 160.672L111.985 162.234C109.485 161.898 107.696 160.836 106.837 159.375C105.97 160.836 104.196 161.898 101.72 162.234L100.985 160.672ZM118.415 158.797C118.408 161.102 119.048 163.477 120.994 164.719L119.915 166.266C118.681 165.523 117.908 164.289 117.455 162.836C116.947 164.445 116.095 165.797 114.806 166.578L113.587 165.109C115.697 163.805 116.478 161.297 116.478 158.891V156.438H118.415V158.797ZM119.494 161.641V160.016H121.337V155.422H123.197V168.781H121.337V161.641H119.494ZM124.275 169.438V155.219H126.181V169.438H124.275ZM140.377 166.141V167.781H127.361V166.141H130.267V162.656C129.166 161.992 128.502 160.984 128.502 159.734C128.502 157.43 130.752 155.914 133.845 155.906C136.924 155.914 139.197 157.43 139.205 159.734C139.197 160.961 138.556 161.953 137.486 162.617V166.141H140.377ZM130.47 159.734C130.47 161.125 131.806 161.984 133.845 161.984C135.853 161.984 137.228 161.125 137.236 159.734C137.228 158.305 135.853 157.477 133.845 157.484C131.806 157.477 130.47 158.305 130.47 159.734ZM132.236 166.141H135.47V163.375C134.963 163.477 134.416 163.531 133.845 163.531C133.275 163.531 132.736 163.477 132.236 163.383V166.141ZM144.104 156.688L143.9 164.609H141.9L141.697 156.688H144.104ZM141.604 166.828C141.588 166.109 142.182 165.523 142.916 165.531C143.611 165.523 144.213 166.109 144.213 166.828C144.213 167.555 143.611 168.141 142.916 168.141C142.182 168.141 141.588 167.555 141.604 166.828Z" fill="#B7C1C8"/>
</svg>
