<svg width="18" height="19" viewBox="0 0 18 19" fill="none" xmlns="http://www.w3.org/2000/svg">
<g id="Frame 289539">
<g id="Group 75">
<g id="orginal">
<rect id="Rectangle 948" x="9" y="0.5" width="12.7279" height="12.7279" rx="6.36396" transform="rotate(45 9 0.5)" fill="#D4DADE"/>
<g id="Union">
<path fill-rule="evenodd" clip-rule="evenodd" d="M6.50022 11C6.22407 11.2761 6.22408 11.7238 6.50022 12C6.77636 12.2761 7.22407 12.2761 7.50022 12L8.99993 10.5003L10.4997 12C10.7759 12.2762 11.2236 12.2762 11.4997 12C11.7759 11.7239 11.7759 11.2762 11.4997 11L9.99993 9.50026L11.5002 7.99997C11.7764 7.72383 11.7764 7.27612 11.5002 6.99997C11.2241 6.72383 10.7764 6.72383 10.5002 6.99997L8.99993 8.50026L7.49971 7.00005C7.22357 6.7239 6.77585 6.7239 6.49971 7.00004C6.22357 7.27619 6.22357 7.7239 6.49971 8.00004L7.99993 9.50026L6.50022 11Z" fill="url(#paint0_radial_8218_4620)"/>
<path fill-rule="evenodd" clip-rule="evenodd" d="M6.50022 11C6.22407 11.2761 6.22408 11.7238 6.50022 12C6.77636 12.2761 7.22407 12.2761 7.50022 12L8.99993 10.5003L10.4997 12C10.7759 12.2762 11.2236 12.2762 11.4997 12C11.7759 11.7239 11.7759 11.2762 11.4997 11L9.99993 9.50026L11.5002 7.99997C11.7764 7.72383 11.7764 7.27612 11.5002 6.99997C11.2241 6.72383 10.7764 6.72383 10.5002 6.99997L8.99993 8.50026L7.49971 7.00005C7.22357 6.7239 6.77585 6.7239 6.49971 7.00004C6.22357 7.27619 6.22357 7.7239 6.49971 8.00004L7.99993 9.50026L6.50022 11Z" fill="url(#paint1_linear_8218_4620)"/>
</g>
<path id="Union_2" fill-rule="evenodd" clip-rule="evenodd" d="M6.50022 11C6.22407 11.2761 6.22408 11.7238 6.50022 12C6.77636 12.2761 7.22407 12.2761 7.50022 12L8.99993 10.5003L10.4997 12C10.7759 12.2762 11.2236 12.2762 11.4997 12C11.7759 11.7239 11.7759 11.2762 11.4997 11L9.99993 9.50026L11.5002 7.99997C11.7764 7.72383 11.7764 7.27612 11.5002 6.99997C11.2241 6.72383 10.7764 6.72383 10.5002 6.99997L8.99993 8.50026L7.49971 7.00005C7.22357 6.7239 6.77585 6.7239 6.49971 7.00004C6.22357 7.27619 6.22357 7.7239 6.49971 8.00004L7.99993 9.50026L6.50022 11Z" fill="white"/>
</g>
</g>
</g>
<defs>
<radialGradient id="paint0_radial_8218_4620" cx="0" cy="0" r="1" gradientUnits="userSpaceOnUse" gradientTransform="translate(8.58333 8.80531) rotate(104.744) scale(8.1862)">
<stop stop-color="#20BC2F"/>
<stop offset="1" stop-color="#20BC2F" stop-opacity="0"/>
</radialGradient>
<linearGradient id="paint1_linear_8218_4620" x1="11.5" y1="6.99976" x2="10.5278" y2="7.97198" gradientUnits="userSpaceOnUse">
<stop stop-color="white"/>
<stop offset="1" stop-color="white" stop-opacity="0"/>
</linearGradient>
</defs>
</svg>
