<svg width="16" height="16" viewBox="0 0 16 16" fill="none" xmlns="http://www.w3.org/2000/svg">
<g id="ant-design:like-outlined">
<path id="Vector" d="M13.8422 7.67267C14.1047 7.32579 14.25 6.90079 14.25 6.45861C14.25 5.75704 13.8578 5.09298 13.2266 4.72267C13.0641 4.62735 12.879 4.57718 12.6906 4.57736H8.94375L9.0375 2.65704C9.05938 2.19298 8.89531 1.75236 8.57656 1.41642C8.42013 1.25084 8.23141 1.11909 8.02206 1.02933C7.8127 0.93957 7.58716 0.893695 7.35938 0.894543C6.54688 0.894543 5.82812 1.44142 5.6125 2.22423L4.27031 7.08361H2.25C1.97344 7.08361 1.75 7.30704 1.75 7.58361V13.2711C1.75 13.5477 1.97344 13.7711 2.25 13.7711H11.6453C11.7891 13.7711 11.9297 13.743 12.0594 13.6867C12.8031 13.3695 13.2828 12.643 13.2828 11.8367C13.2828 11.6399 13.2547 11.4461 13.1984 11.2586C13.4609 10.9117 13.6062 10.4867 13.6062 10.0445C13.6062 9.84767 13.5781 9.65392 13.5219 9.46642C13.7844 9.11954 13.9297 8.69454 13.9297 8.25236C13.9266 8.05548 13.8984 7.86017 13.8422 7.67267ZM2.875 12.6461V8.20861H4.14062V12.6461H2.875ZM12.8188 7.13048L12.4766 7.42736L12.6938 7.82423C12.7653 7.95497 12.8024 8.10176 12.8016 8.25079C12.8016 8.50861 12.6891 8.75392 12.4953 8.92267L12.1531 9.21954L12.3703 9.61642C12.4419 9.74715 12.479 9.89395 12.4781 10.043C12.4781 10.3008 12.3656 10.5461 12.1719 10.7149L11.8297 11.0117L12.0469 11.4086C12.1184 11.5393 12.1555 11.6861 12.1547 11.8352C12.1547 12.1852 11.9484 12.5008 11.6297 12.6445H5.14062V8.15861L6.69531 2.52579C6.7354 2.38142 6.82146 2.25405 6.94044 2.16297C7.05943 2.0719 7.20485 2.0221 7.35469 2.02111C7.47344 2.02111 7.59062 2.05548 7.68437 2.12579C7.83906 2.24142 7.92188 2.41642 7.9125 2.60236L7.7625 5.70236H12.675C12.9531 5.87267 13.125 6.16017 13.125 6.45861C13.125 6.71642 13.0125 6.96017 12.8188 7.13048Z" fill="#4D5C65"/>
</g>
</svg>
